<svg xmlns="http://www.w3.org/2000/svg" width="52" height="44" fill="none" viewBox="0 0 52 44"><path fill="red" d="M44 22h-4v2h4zM44 20h-4v2h4zM40 20h-4v2h4zM36 20h-4v2h4zM32 20h-4v2h4zM40 24h-4v4h4zM32 16h-4v4h4zM36 16h-4v4h4zM40 16h-4v4h4zM44 16h-4v4h4zM48 16h-4v4h4zM48 12h-4v4h4zM44 12h-4v4h4zM40 12h-4v4h4zM36 12h-4v4h4zM32 12h-4v4h4zM32 8h-4v4h4zM36 8h-4v4h4zM40 8h-4v4h4zM44 8h-4v4h4zM48 8h-4v4h4zM40 4h-4v4h4zM44 4h-4v4h4zM36 4h-4v4h4zM36 28h-4v4h4zM32 32h-4v4h4zM28 36h-2v4h2zM40 22h-4v2h4zM36 22h-4v2h4zM32 22h-4v2h4zM28 22h-2v2h2zM28 12h-2v2h2zM28 14h-2v2h2zM28 16h-2v2h2zM28 18h-2v2h2zM28 20h-2v2h2zM36 24h-4v4h4zM32 24h-4v4h4zM28 24h-2v4h2zM28 28h-2v4h2zM28 32h-2v4h2zM32 28h-4v4h4z"/><path fill="#000" d="M4 4h4v4H4zM8 0h4v4H8z"/><path fill="#000" d="M8 0h4v4H8z"/><path fill="red" d="M8 22h4v2H8zM12 24h4v4h-4zM16 28h4v4h-4zM20 32h4v4h-4zM24 36h2v4h-2zM12 22h4v2h-4zM16 22h4v2h-4zM20 22h4v2h-4zM24 22h2v2h-2zM16 24h4v4h-4zM20 24h4v4h-4zM24 24h2v4h-2zM24 28h2v4h-2zM24 32h2v4h-2zM20 28h4v4h-4z"/><path fill="#000" d="M12 0h4v4h-4z"/><path fill="#000" d="M12 0h4v4h-4zM0 8h4v4H0zM16 0h4v4h-4zM0 12h4v4H0zM0 16h4v4H0zM4 20h4v4H4zM48 12h4v4h-4zM48 16h4v4h-4zM44 20h4v4h-4z"/><path fill="#000" d="M44 20h4v4h-4zM40 24h4v4h-4zM36 28h4v4h-4zM32 32h4v4h-4zM28 36h4v4h-4zM24 40h4v4h-4zM8 24h4v4H8zM12 28h4v4h-4zM16 32h4v4h-4zM20 36h4v4h-4zM48 4h-4v4h4zM44 0h-4v4h4z"/><path fill="#000" d="M44 0h-4v4h4zM40 0h-4v4h4z"/><path fill="#000" d="M40 0h-4v4h4zM52 8h-4v4h4zM36 0h-4v4h4zM20 4h4v4h-4zM24 8h4v4h-4zM28 4h4v4h-4z"/></svg>