<svg xmlns="http://www.w3.org/2000/svg" width="52" height="44" fill="none" viewBox="0 0 52 44"><path fill="#000" d="M4 4h4v4H4zM8 0h4v4H8z"/><path fill="#000" d="M8 0h4v4H8z"/><path fill="red" d="M16 4h4v4h-4zM12 4h4v4h-4zM8 4h4v4H8zM4 8h4v4H4z"/><path fill="red" d="M4 8h4v4H4zM8 8h4v4H8zM4 12h4v4H4zM4 16h4v4H4zM8 20h4v4H8zM12 24h4v4h-4zM16 28h4v4h-4zM20 32h4v4h-4zM24 36h4v4h-4zM28 32h4v4h-4zM32 28h4v4h-4zM36 24h4v4h-4zM40 20h4v4h-4zM32 8h4v4h-4zM36 8h4v4h-4zM40 8h4v4h-4zM40 12h4v4h-4zM40 16h4v4h-4zM36 12h4v4h-4zM32 12h4v4h-4zM36 16h4v4h-4zM32 16h4v4h-4zM28 16h4v4h-4zM24 16h4v4h-4zM20 16h4v4h-4zM16 8h4v4h-4zM12 8h4v4h-4zM8 12h4v4H8zM8 16h4v4H8zM12 12h4v4h-4zM16 12h4v4h-4zM12 16h4v4h-4zM12 20h4v4h-4zM16 20h4v4h-4zM20 20h4v4h-4z"/><path fill="red" d="M20 20h4v4h-4zM24 20h4v4h-4zM28 20h4v4h-4zM32 20h4v4h-4zM36 20h4v4h-4zM16 24h4v4h-4zM20 24h4v4h-4zM24 24h4v4h-4zM28 24h4v4h-4zM32 24h4v4h-4zM28 28h4v4h-4zM24 28h4v4h-4zM24 32h4v4h-4zM20 28h4v4h-4zM16 16h4v4h-4zM28 16h4v4h-4zM20 12h4v4h-4zM36 12h4v4h-4zM28 12h4v4h-4zM20 8h4v4h-4zM24 12h4v4h-4zM28 8h4v4h-4zM32 4h4v4h-4zM36 4h4v4h-4zM40 4h4v4h-4zM44 8h4v4h-4zM44 12h4v4h-4zM44 16h4v4h-4z"/><path fill="#000" d="M12 0h4v4h-4z"/><path fill="#000" d="M12 0h4v4h-4zM0 8h4v4H0zM16 0h4v4h-4zM0 12h4v4H0zM0 16h4v4H0zM4 20h4v4H4zM48 12h4v4h-4zM48 16h4v4h-4zM44 20h4v4h-4z"/><path fill="#000" d="M44 20h4v4h-4zM40 24h4v4h-4zM36 28h4v4h-4zM32 32h4v4h-4zM28 36h4v4h-4zM24 40h4v4h-4zM8 24h4v4H8zM12 28h4v4h-4zM16 32h4v4h-4zM20 36h4v4h-4zM48 4h-4v4h4zM44 0h-4v4h4z"/><path fill="#000" d="M44 0h-4v4h4zM40 0h-4v4h4z"/><path fill="#000" d="M40 0h-4v4h4zM52 8h-4v4h4zM36 0h-4v4h4zM20 4h4v4h-4zM24 8h4v4h-4zM28 4h4v4h-4z"/></svg>