<?xml version="1.0" encoding="UTF-8" ?>
<svg version="1.1" width="320" height="320" xmlns="http://www.w3.org/2000/svg" shape-rendering="crispEdges">
<rect x="20" y="20" width="10" height="10" fill="#707070" />
<rect x="30" y="20" width="10" height="10" fill="#707070" />
<rect x="40" y="20" width="10" height="10" fill="#707070" />
<rect x="50" y="20" width="10" height="10" fill="#707070" />
<rect x="60" y="20" width="10" height="10" fill="#707070" />
<rect x="70" y="20" width="10" height="10" fill="#707070" />
<rect x="80" y="20" width="10" height="10" fill="#707070" />
<rect x="90" y="20" width="10" height="10" fill="#707070" />
<rect x="100" y="20" width="10" height="10" fill="#707070" />
<rect x="110" y="20" width="10" height="10" fill="#707070" />
<rect x="120" y="20" width="10" height="10" fill="#707070" />
<rect x="130" y="20" width="10" height="10" fill="#707070" />
<rect x="140" y="20" width="10" height="10" fill="#707070" />
<rect x="150" y="20" width="10" height="10" fill="#707070" />
<rect x="160" y="20" width="10" height="10" fill="#707070" />
<rect x="170" y="20" width="10" height="10" fill="#707070" />
<rect x="180" y="20" width="10" height="10" fill="#707070" />
<rect x="190" y="20" width="10" height="10" fill="#707070" />
<rect x="200" y="20" width="10" height="10" fill="#707070" />
<rect x="210" y="20" width="10" height="10" fill="#707070" />
<rect x="220" y="20" width="10" height="10" fill="#707070" />
<rect x="230" y="20" width="10" height="10" fill="#707070" />
<rect x="240" y="20" width="10" height="10" fill="#707070" />
<rect x="250" y="20" width="10" height="10" fill="#707070" />
<rect x="260" y="20" width="10" height="10" fill="#707070" />
<rect x="270" y="20" width="10" height="10" fill="#707070" />
<rect x="280" y="20" width="10" height="10" fill="#707070" />
<rect x="290" y="20" width="10" height="10" fill="#707070" />
<rect x="20" y="30" width="10" height="10" fill="#707070" />
<rect x="30" y="30" width="10" height="10" fill="#808080" />
<rect x="40" y="30" width="10" height="10" fill="#808080" />
<rect x="50" y="30" width="10" height="10" fill="#808080" />
<rect x="60" y="30" width="10" height="10" fill="#808080" />
<rect x="70" y="30" width="10" height="10" fill="#808080" />
<rect x="80" y="30" width="10" height="10" fill="#808080" />
<rect x="90" y="30" width="10" height="10" fill="#808080" />
<rect x="100" y="30" width="10" height="10" fill="#808080" />
<rect x="110" y="30" width="10" height="10" fill="#808080" />
<rect x="120" y="30" width="10" height="10" fill="#808080" />
<rect x="130" y="30" width="10" height="10" fill="#808080" />
<rect x="140" y="30" width="10" height="10" fill="#808080" />
<rect x="150" y="30" width="10" height="10" fill="#808080" />
<rect x="160" y="30" width="10" height="10" fill="#808080" />
<rect x="170" y="30" width="10" height="10" fill="#808080" />
<rect x="180" y="30" width="10" height="10" fill="#808080" />
<rect x="190" y="30" width="10" height="10" fill="#808080" />
<rect x="200" y="30" width="10" height="10" fill="#808080" />
<rect x="210" y="30" width="10" height="10" fill="#808080" />
<rect x="220" y="30" width="10" height="10" fill="#808080" />
<rect x="230" y="30" width="10" height="10" fill="#808080" />
<rect x="240" y="30" width="10" height="10" fill="#808080" />
<rect x="250" y="30" width="10" height="10" fill="#808080" />
<rect x="260" y="30" width="10" height="10" fill="#808080" />
<rect x="270" y="30" width="10" height="10" fill="#808080" />
<rect x="280" y="30" width="10" height="10" fill="#808080" />
<rect x="290" y="30" width="10" height="10" fill="#707070" />
<rect x="20" y="40" width="10" height="10" fill="#707070" />
<rect x="30" y="40" width="10" height="10" fill="#808080" />
<rect x="40" y="40" width="10" height="10" fill="#A1A1A1" />
<rect x="50" y="40" width="10" height="10" fill="#A1A1A1" />
<rect x="60" y="40" width="10" height="10" fill="#A1A1A1" />
<rect x="70" y="40" width="10" height="10" fill="#A1A1A1" />
<rect x="80" y="40" width="10" height="10" fill="#A1A1A1" />
<rect x="90" y="40" width="10" height="10" fill="#A1A1A1" />
<rect x="100" y="40" width="10" height="10" fill="#A1A1A1" />
<rect x="110" y="40" width="10" height="10" fill="#A1A1A1" />
<rect x="120" y="40" width="10" height="10" fill="#A1A1A1" />
<rect x="130" y="40" width="10" height="10" fill="#A1A1A1" />
<rect x="140" y="40" width="10" height="10" fill="#A1A1A1" />
<rect x="150" y="40" width="10" height="10" fill="#A1A1A1" />
<rect x="160" y="40" width="10" height="10" fill="#A1A1A1" />
<rect x="170" y="40" width="10" height="10" fill="#A1A1A1" />
<rect x="180" y="40" width="10" height="10" fill="#A1A1A1" />
<rect x="190" y="40" width="10" height="10" fill="#A1A1A1" />
<rect x="200" y="40" width="10" height="10" fill="#A1A1A1" />
<rect x="210" y="40" width="10" height="10" fill="#A1A1A1" />
<rect x="220" y="40" width="10" height="10" fill="#A1A1A1" />
<rect x="230" y="40" width="10" height="10" fill="#A1A1A1" />
<rect x="240" y="40" width="10" height="10" fill="#A1A1A1" />
<rect x="250" y="40" width="10" height="10" fill="#A1A1A1" />
<rect x="260" y="40" width="10" height="10" fill="#A1A1A1" />
<rect x="270" y="40" width="10" height="10" fill="#A1A1A1" />
<rect x="280" y="40" width="10" height="10" fill="#808080" />
<rect x="290" y="40" width="10" height="10" fill="#707070" />
<rect x="20" y="50" width="10" height="10" fill="#707070" />
<rect x="30" y="50" width="10" height="10" fill="#808080" />
<rect x="40" y="50" width="10" height="10" fill="#A1A1A1" />
<rect x="50" y="50" width="10" height="10" fill="#BCBCBC" />
<rect x="60" y="50" width="10" height="10" fill="#BCBCBC" />
<rect x="70" y="50" width="10" height="10" fill="#BCBCBC" />
<rect x="80" y="50" width="10" height="10" fill="#BCBCBC" />
<rect x="90" y="50" width="10" height="10" fill="#BCBCBC" />
<rect x="100" y="50" width="10" height="10" fill="#BCBCBC" />
<rect x="110" y="50" width="10" height="10" fill="#BCBCBC" />
<rect x="120" y="50" width="10" height="10" fill="#BCBCBC" />
<rect x="130" y="50" width="10" height="10" fill="#BCBCBC" />
<rect x="140" y="50" width="10" height="10" fill="#BCBCBC" />
<rect x="150" y="50" width="10" height="10" fill="#BCBCBC" />
<rect x="160" y="50" width="10" height="10" fill="#BCBCBC" />
<rect x="170" y="50" width="10" height="10" fill="#BCBCBC" />
<rect x="180" y="50" width="10" height="10" fill="#BCBCBC" />
<rect x="190" y="50" width="10" height="10" fill="#BCBCBC" />
<rect x="200" y="50" width="10" height="10" fill="#BCBCBC" />
<rect x="210" y="50" width="10" height="10" fill="#BCBCBC" />
<rect x="220" y="50" width="10" height="10" fill="#BCBCBC" />
<rect x="230" y="50" width="10" height="10" fill="#BCBCBC" />
<rect x="240" y="50" width="10" height="10" fill="#BCBCBC" />
<rect x="250" y="50" width="10" height="10" fill="#BCBCBC" />
<rect x="260" y="50" width="10" height="10" fill="#BCBCBC" />
<rect x="270" y="50" width="10" height="10" fill="#A1A1A1" />
<rect x="280" y="50" width="10" height="10" fill="#808080" />
<rect x="290" y="50" width="10" height="10" fill="#707070" />
<rect x="20" y="60" width="10" height="10" fill="#707070" />
<rect x="30" y="60" width="10" height="10" fill="#808080" />
<rect x="40" y="60" width="10" height="10" fill="#A1A1A1" />
<rect x="50" y="60" width="10" height="10" fill="#BCBCBC" />
<rect x="60" y="60" width="10" height="10" fill="#DBDBDB" />
<rect x="70" y="60" width="10" height="10" fill="#DBDBDB" />
<rect x="80" y="60" width="10" height="10" fill="#DBDBDB" />
<rect x="90" y="60" width="10" height="10" fill="#DBDBDB" />
<rect x="100" y="60" width="10" height="10" fill="#DBDBDB" />
<rect x="110" y="60" width="10" height="10" fill="#DBDBDB" />
<rect x="120" y="60" width="10" height="10" fill="#DBDBDB" />
<rect x="130" y="60" width="10" height="10" fill="#DBDBDB" />
<rect x="140" y="60" width="10" height="10" fill="#DBDBDB" />
<rect x="150" y="60" width="10" height="10" fill="#DBDBDB" />
<rect x="160" y="60" width="10" height="10" fill="#DBDBDB" />
<rect x="170" y="60" width="10" height="10" fill="#DBDBDB" />
<rect x="180" y="60" width="10" height="10" fill="#DBDBDB" />
<rect x="190" y="60" width="10" height="10" fill="#DBDBDB" />
<rect x="200" y="60" width="10" height="10" fill="#DBDBDB" />
<rect x="210" y="60" width="10" height="10" fill="#DBDBDB" />
<rect x="220" y="60" width="10" height="10" fill="#DBDBDB" />
<rect x="230" y="60" width="10" height="10" fill="#DBDBDB" />
<rect x="240" y="60" width="10" height="10" fill="#DBDBDB" />
<rect x="250" y="60" width="10" height="10" fill="#DBDBDB" />
<rect x="260" y="60" width="10" height="10" fill="#BCBCBC" />
<rect x="270" y="60" width="10" height="10" fill="#A1A1A1" />
<rect x="280" y="60" width="10" height="10" fill="#808080" />
<rect x="290" y="60" width="10" height="10" fill="#707070" />
<rect x="20" y="70" width="10" height="10" fill="#707070" />
<rect x="30" y="70" width="10" height="10" fill="#808080" />
<rect x="40" y="70" width="10" height="10" fill="#A1A1A1" />
<rect x="50" y="70" width="10" height="10" fill="#BCBCBC" />
<rect x="60" y="70" width="10" height="10" fill="#DBDBDB" />
<rect x="250" y="70" width="10" height="10" fill="#DBDBDB" />
<rect x="260" y="70" width="10" height="10" fill="#BCBCBC" />
<rect x="270" y="70" width="10" height="10" fill="#A1A1A1" />
<rect x="280" y="70" width="10" height="10" fill="#808080" />
<rect x="290" y="70" width="10" height="10" fill="#707070" />
<rect x="20" y="80" width="10" height="10" fill="#707070" />
<rect x="30" y="80" width="10" height="10" fill="#808080" />
<rect x="40" y="80" width="10" height="10" fill="#A1A1A1" />
<rect x="50" y="80" width="10" height="10" fill="#BCBCBC" />
<rect x="60" y="80" width="10" height="10" fill="#DBDBDB" />
<rect x="250" y="80" width="10" height="10" fill="#DBDBDB" />
<rect x="260" y="80" width="10" height="10" fill="#BCBCBC" />
<rect x="270" y="80" width="10" height="10" fill="#A1A1A1" />
<rect x="280" y="80" width="10" height="10" fill="#808080" />
<rect x="290" y="80" width="10" height="10" fill="#707070" />
<rect x="20" y="90" width="10" height="10" fill="#707070" />
<rect x="30" y="90" width="10" height="10" fill="#808080" />
<rect x="40" y="90" width="10" height="10" fill="#A1A1A1" />
<rect x="50" y="90" width="10" height="10" fill="#BCBCBC" />
<rect x="60" y="90" width="10" height="10" fill="#DBDBDB" />
<rect x="250" y="90" width="10" height="10" fill="#DBDBDB" />
<rect x="260" y="90" width="10" height="10" fill="#BCBCBC" />
<rect x="270" y="90" width="10" height="10" fill="#A1A1A1" />
<rect x="280" y="90" width="10" height="10" fill="#808080" />
<rect x="290" y="90" width="10" height="10" fill="#707070" />
<rect x="20" y="100" width="10" height="10" fill="#707070" />
<rect x="30" y="100" width="10" height="10" fill="#808080" />
<rect x="40" y="100" width="10" height="10" fill="#A1A1A1" />
<rect x="50" y="100" width="10" height="10" fill="#BCBCBC" />
<rect x="60" y="100" width="10" height="10" fill="#DBDBDB" />
<rect x="250" y="100" width="10" height="10" fill="#DBDBDB" />
<rect x="260" y="100" width="10" height="10" fill="#BCBCBC" />
<rect x="270" y="100" width="10" height="10" fill="#A1A1A1" />
<rect x="280" y="100" width="10" height="10" fill="#808080" />
<rect x="290" y="100" width="10" height="10" fill="#707070" />
<rect x="20" y="110" width="10" height="10" fill="#707070" />
<rect x="30" y="110" width="10" height="10" fill="#808080" />
<rect x="40" y="110" width="10" height="10" fill="#A1A1A1" />
<rect x="50" y="110" width="10" height="10" fill="#BCBCBC" />
<rect x="60" y="110" width="10" height="10" fill="#DBDBDB" />
<rect x="250" y="110" width="10" height="10" fill="#DBDBDB" />
<rect x="260" y="110" width="10" height="10" fill="#BCBCBC" />
<rect x="270" y="110" width="10" height="10" fill="#A1A1A1" />
<rect x="280" y="110" width="10" height="10" fill="#808080" />
<rect x="290" y="110" width="10" height="10" fill="#707070" />
<rect x="20" y="120" width="10" height="10" fill="#707070" />
<rect x="30" y="120" width="10" height="10" fill="#808080" />
<rect x="40" y="120" width="10" height="10" fill="#A1A1A1" />
<rect x="50" y="120" width="10" height="10" fill="#BCBCBC" />
<rect x="60" y="120" width="10" height="10" fill="#DBDBDB" />
<rect x="250" y="120" width="10" height="10" fill="#DBDBDB" />
<rect x="260" y="120" width="10" height="10" fill="#BCBCBC" />
<rect x="270" y="120" width="10" height="10" fill="#A1A1A1" />
<rect x="280" y="120" width="10" height="10" fill="#808080" />
<rect x="290" y="120" width="10" height="10" fill="#707070" />
<rect x="20" y="130" width="10" height="10" fill="#707070" />
<rect x="30" y="130" width="10" height="10" fill="#808080" />
<rect x="40" y="130" width="10" height="10" fill="#A1A1A1" />
<rect x="50" y="130" width="10" height="10" fill="#BCBCBC" />
<rect x="60" y="130" width="10" height="10" fill="#DBDBDB" />
<rect x="250" y="130" width="10" height="10" fill="#DBDBDB" />
<rect x="260" y="130" width="10" height="10" fill="#BCBCBC" />
<rect x="270" y="130" width="10" height="10" fill="#A1A1A1" />
<rect x="280" y="130" width="10" height="10" fill="#808080" />
<rect x="290" y="130" width="10" height="10" fill="#707070" />
<rect x="20" y="140" width="10" height="10" fill="#707070" />
<rect x="30" y="140" width="10" height="10" fill="#808080" />
<rect x="40" y="140" width="10" height="10" fill="#A1A1A1" />
<rect x="50" y="140" width="10" height="10" fill="#BCBCBC" />
<rect x="60" y="140" width="10" height="10" fill="#DBDBDB" />
<rect x="250" y="140" width="10" height="10" fill="#DBDBDB" />
<rect x="260" y="140" width="10" height="10" fill="#BCBCBC" />
<rect x="270" y="140" width="10" height="10" fill="#A1A1A1" />
<rect x="280" y="140" width="10" height="10" fill="#808080" />
<rect x="290" y="140" width="10" height="10" fill="#707070" />
<rect x="20" y="150" width="10" height="10" fill="#707070" />
<rect x="30" y="150" width="10" height="10" fill="#808080" />
<rect x="40" y="150" width="10" height="10" fill="#A1A1A1" />
<rect x="50" y="150" width="10" height="10" fill="#BCBCBC" />
<rect x="60" y="150" width="10" height="10" fill="#DBDBDB" />
<rect x="250" y="150" width="10" height="10" fill="#DBDBDB" />
<rect x="260" y="150" width="10" height="10" fill="#BCBCBC" />
<rect x="270" y="150" width="10" height="10" fill="#A1A1A1" />
<rect x="280" y="150" width="10" height="10" fill="#808080" />
<rect x="290" y="150" width="10" height="10" fill="#707070" />
<rect x="20" y="160" width="10" height="10" fill="#707070" />
<rect x="30" y="160" width="10" height="10" fill="#808080" />
<rect x="40" y="160" width="10" height="10" fill="#A1A1A1" />
<rect x="50" y="160" width="10" height="10" fill="#BCBCBC" />
<rect x="60" y="160" width="10" height="10" fill="#DBDBDB" />
<rect x="250" y="160" width="10" height="10" fill="#DBDBDB" />
<rect x="260" y="160" width="10" height="10" fill="#BCBCBC" />
<rect x="270" y="160" width="10" height="10" fill="#A1A1A1" />
<rect x="280" y="160" width="10" height="10" fill="#808080" />
<rect x="290" y="160" width="10" height="10" fill="#707070" />
<rect x="20" y="170" width="10" height="10" fill="#707070" />
<rect x="30" y="170" width="10" height="10" fill="#808080" />
<rect x="40" y="170" width="10" height="10" fill="#A1A1A1" />
<rect x="50" y="170" width="10" height="10" fill="#BCBCBC" />
<rect x="60" y="170" width="10" height="10" fill="#DBDBDB" />
<rect x="250" y="170" width="10" height="10" fill="#DBDBDB" />
<rect x="260" y="170" width="10" height="10" fill="#BCBCBC" />
<rect x="270" y="170" width="10" height="10" fill="#A1A1A1" />
<rect x="280" y="170" width="10" height="10" fill="#808080" />
<rect x="290" y="170" width="10" height="10" fill="#707070" />
<rect x="20" y="180" width="10" height="10" fill="#707070" />
<rect x="30" y="180" width="10" height="10" fill="#808080" />
<rect x="40" y="180" width="10" height="10" fill="#A1A1A1" />
<rect x="50" y="180" width="10" height="10" fill="#BCBCBC" />
<rect x="60" y="180" width="10" height="10" fill="#DBDBDB" />
<rect x="250" y="180" width="10" height="10" fill="#DBDBDB" />
<rect x="260" y="180" width="10" height="10" fill="#BCBCBC" />
<rect x="270" y="180" width="10" height="10" fill="#A1A1A1" />
<rect x="280" y="180" width="10" height="10" fill="#808080" />
<rect x="290" y="180" width="10" height="10" fill="#707070" />
<rect x="20" y="190" width="10" height="10" fill="#707070" />
<rect x="30" y="190" width="10" height="10" fill="#808080" />
<rect x="40" y="190" width="10" height="10" fill="#A1A1A1" />
<rect x="50" y="190" width="10" height="10" fill="#BCBCBC" />
<rect x="60" y="190" width="10" height="10" fill="#DBDBDB" />
<rect x="250" y="190" width="10" height="10" fill="#DBDBDB" />
<rect x="260" y="190" width="10" height="10" fill="#BCBCBC" />
<rect x="270" y="190" width="10" height="10" fill="#A1A1A1" />
<rect x="280" y="190" width="10" height="10" fill="#808080" />
<rect x="290" y="190" width="10" height="10" fill="#707070" />
<rect x="20" y="200" width="10" height="10" fill="#707070" />
<rect x="30" y="200" width="10" height="10" fill="#808080" />
<rect x="40" y="200" width="10" height="10" fill="#A1A1A1" />
<rect x="50" y="200" width="10" height="10" fill="#BCBCBC" />
<rect x="60" y="200" width="10" height="10" fill="#DBDBDB" />
<rect x="250" y="200" width="10" height="10" fill="#DBDBDB" />
<rect x="260" y="200" width="10" height="10" fill="#BCBCBC" />
<rect x="270" y="200" width="10" height="10" fill="#A1A1A1" />
<rect x="280" y="200" width="10" height="10" fill="#808080" />
<rect x="290" y="200" width="10" height="10" fill="#707070" />
<rect x="20" y="210" width="10" height="10" fill="#707070" />
<rect x="30" y="210" width="10" height="10" fill="#808080" />
<rect x="40" y="210" width="10" height="10" fill="#A1A1A1" />
<rect x="50" y="210" width="10" height="10" fill="#BCBCBC" />
<rect x="60" y="210" width="10" height="10" fill="#DBDBDB" />
<rect x="250" y="210" width="10" height="10" fill="#DBDBDB" />
<rect x="260" y="210" width="10" height="10" fill="#BCBCBC" />
<rect x="270" y="210" width="10" height="10" fill="#A1A1A1" />
<rect x="280" y="210" width="10" height="10" fill="#808080" />
<rect x="290" y="210" width="10" height="10" fill="#707070" />
<rect x="20" y="220" width="10" height="10" fill="#707070" />
<rect x="30" y="220" width="10" height="10" fill="#808080" />
<rect x="40" y="220" width="10" height="10" fill="#A1A1A1" />
<rect x="50" y="220" width="10" height="10" fill="#BCBCBC" />
<rect x="60" y="220" width="10" height="10" fill="#DBDBDB" />
<rect x="250" y="220" width="10" height="10" fill="#DBDBDB" />
<rect x="260" y="220" width="10" height="10" fill="#BCBCBC" />
<rect x="270" y="220" width="10" height="10" fill="#A1A1A1" />
<rect x="280" y="220" width="10" height="10" fill="#808080" />
<rect x="290" y="220" width="10" height="10" fill="#707070" />
<rect x="20" y="230" width="10" height="10" fill="#707070" />
<rect x="30" y="230" width="10" height="10" fill="#808080" />
<rect x="40" y="230" width="10" height="10" fill="#A1A1A1" />
<rect x="50" y="230" width="10" height="10" fill="#BCBCBC" />
<rect x="60" y="230" width="10" height="10" fill="#DBDBDB" />
<rect x="250" y="230" width="10" height="10" fill="#DBDBDB" />
<rect x="260" y="230" width="10" height="10" fill="#BCBCBC" />
<rect x="270" y="230" width="10" height="10" fill="#A1A1A1" />
<rect x="280" y="230" width="10" height="10" fill="#808080" />
<rect x="290" y="230" width="10" height="10" fill="#707070" />
<rect x="20" y="240" width="10" height="10" fill="#707070" />
<rect x="30" y="240" width="10" height="10" fill="#808080" />
<rect x="40" y="240" width="10" height="10" fill="#A1A1A1" />
<rect x="50" y="240" width="10" height="10" fill="#BCBCBC" />
<rect x="60" y="240" width="10" height="10" fill="#DBDBDB" />
<rect x="250" y="240" width="10" height="10" fill="#DBDBDB" />
<rect x="260" y="240" width="10" height="10" fill="#BCBCBC" />
<rect x="270" y="240" width="10" height="10" fill="#A1A1A1" />
<rect x="280" y="240" width="10" height="10" fill="#808080" />
<rect x="290" y="240" width="10" height="10" fill="#707070" />
<rect x="20" y="250" width="10" height="10" fill="#707070" />
<rect x="30" y="250" width="10" height="10" fill="#808080" />
<rect x="40" y="250" width="10" height="10" fill="#A1A1A1" />
<rect x="50" y="250" width="10" height="10" fill="#BCBCBC" />
<rect x="60" y="250" width="10" height="10" fill="#DBDBDB" />
<rect x="70" y="250" width="10" height="10" fill="#DBDBDB" />
<rect x="80" y="250" width="10" height="10" fill="#DBDBDB" />
<rect x="90" y="250" width="10" height="10" fill="#DBDBDB" />
<rect x="100" y="250" width="10" height="10" fill="#DBDBDB" />
<rect x="110" y="250" width="10" height="10" fill="#DBDBDB" />
<rect x="120" y="250" width="10" height="10" fill="#DBDBDB" />
<rect x="130" y="250" width="10" height="10" fill="#DBDBDB" />
<rect x="140" y="250" width="10" height="10" fill="#DBDBDB" />
<rect x="150" y="250" width="10" height="10" fill="#DBDBDB" />
<rect x="160" y="250" width="10" height="10" fill="#DBDBDB" />
<rect x="170" y="250" width="10" height="10" fill="#DBDBDB" />
<rect x="180" y="250" width="10" height="10" fill="#DBDBDB" />
<rect x="190" y="250" width="10" height="10" fill="#DBDBDB" />
<rect x="200" y="250" width="10" height="10" fill="#DBDBDB" />
<rect x="210" y="250" width="10" height="10" fill="#DBDBDB" />
<rect x="220" y="250" width="10" height="10" fill="#DBDBDB" />
<rect x="230" y="250" width="10" height="10" fill="#DBDBDB" />
<rect x="240" y="250" width="10" height="10" fill="#DBDBDB" />
<rect x="250" y="250" width="10" height="10" fill="#DBDBDB" />
<rect x="260" y="250" width="10" height="10" fill="#BCBCBC" />
<rect x="270" y="250" width="10" height="10" fill="#A1A1A1" />
<rect x="280" y="250" width="10" height="10" fill="#808080" />
<rect x="290" y="250" width="10" height="10" fill="#707070" />
<rect x="20" y="260" width="10" height="10" fill="#707070" />
<rect x="30" y="260" width="10" height="10" fill="#808080" />
<rect x="40" y="260" width="10" height="10" fill="#A1A1A1" />
<rect x="50" y="260" width="10" height="10" fill="#BCBCBC" />
<rect x="60" y="260" width="10" height="10" fill="#BCBCBC" />
<rect x="70" y="260" width="10" height="10" fill="#BCBCBC" />
<rect x="80" y="260" width="10" height="10" fill="#BCBCBC" />
<rect x="90" y="260" width="10" height="10" fill="#BCBCBC" />
<rect x="100" y="260" width="10" height="10" fill="#BCBCBC" />
<rect x="110" y="260" width="10" height="10" fill="#BCBCBC" />
<rect x="120" y="260" width="10" height="10" fill="#BCBCBC" />
<rect x="130" y="260" width="10" height="10" fill="#BCBCBC" />
<rect x="140" y="260" width="10" height="10" fill="#BCBCBC" />
<rect x="150" y="260" width="10" height="10" fill="#BCBCBC" />
<rect x="160" y="260" width="10" height="10" fill="#BCBCBC" />
<rect x="170" y="260" width="10" height="10" fill="#BCBCBC" />
<rect x="180" y="260" width="10" height="10" fill="#BCBCBC" />
<rect x="190" y="260" width="10" height="10" fill="#BCBCBC" />
<rect x="200" y="260" width="10" height="10" fill="#BCBCBC" />
<rect x="210" y="260" width="10" height="10" fill="#BCBCBC" />
<rect x="220" y="260" width="10" height="10" fill="#BCBCBC" />
<rect x="230" y="260" width="10" height="10" fill="#BCBCBC" />
<rect x="240" y="260" width="10" height="10" fill="#BCBCBC" />
<rect x="250" y="260" width="10" height="10" fill="#BCBCBC" />
<rect x="260" y="260" width="10" height="10" fill="#BCBCBC" />
<rect x="270" y="260" width="10" height="10" fill="#A1A1A1" />
<rect x="280" y="260" width="10" height="10" fill="#808080" />
<rect x="290" y="260" width="10" height="10" fill="#707070" />
<rect x="20" y="270" width="10" height="10" fill="#707070" />
<rect x="30" y="270" width="10" height="10" fill="#808080" />
<rect x="40" y="270" width="10" height="10" fill="#A1A1A1" />
<rect x="50" y="270" width="10" height="10" fill="#A1A1A1" />
<rect x="60" y="270" width="10" height="10" fill="#A1A1A1" />
<rect x="70" y="270" width="10" height="10" fill="#A1A1A1" />
<rect x="80" y="270" width="10" height="10" fill="#A1A1A1" />
<rect x="90" y="270" width="10" height="10" fill="#A1A1A1" />
<rect x="100" y="270" width="10" height="10" fill="#A1A1A1" />
<rect x="110" y="270" width="10" height="10" fill="#A1A1A1" />
<rect x="120" y="270" width="10" height="10" fill="#A1A1A1" />
<rect x="130" y="270" width="10" height="10" fill="#A1A1A1" />
<rect x="140" y="270" width="10" height="10" fill="#A1A1A1" />
<rect x="150" y="270" width="10" height="10" fill="#A1A1A1" />
<rect x="160" y="270" width="10" height="10" fill="#A1A1A1" />
<rect x="170" y="270" width="10" height="10" fill="#A1A1A1" />
<rect x="180" y="270" width="10" height="10" fill="#A1A1A1" />
<rect x="190" y="270" width="10" height="10" fill="#A1A1A1" />
<rect x="200" y="270" width="10" height="10" fill="#A1A1A1" />
<rect x="210" y="270" width="10" height="10" fill="#A1A1A1" />
<rect x="220" y="270" width="10" height="10" fill="#A1A1A1" />
<rect x="230" y="270" width="10" height="10" fill="#A1A1A1" />
<rect x="240" y="270" width="10" height="10" fill="#A1A1A1" />
<rect x="250" y="270" width="10" height="10" fill="#A1A1A1" />
<rect x="260" y="270" width="10" height="10" fill="#A1A1A1" />
<rect x="270" y="270" width="10" height="10" fill="#A1A1A1" />
<rect x="280" y="270" width="10" height="10" fill="#808080" />
<rect x="290" y="270" width="10" height="10" fill="#707070" />
<rect x="20" y="280" width="10" height="10" fill="#707070" />
<rect x="30" y="280" width="10" height="10" fill="#808080" />
<rect x="40" y="280" width="10" height="10" fill="#808080" />
<rect x="50" y="280" width="10" height="10" fill="#808080" />
<rect x="60" y="280" width="10" height="10" fill="#808080" />
<rect x="70" y="280" width="10" height="10" fill="#808080" />
<rect x="80" y="280" width="10" height="10" fill="#808080" />
<rect x="90" y="280" width="10" height="10" fill="#808080" />
<rect x="100" y="280" width="10" height="10" fill="#808080" />
<rect x="110" y="280" width="10" height="10" fill="#808080" />
<rect x="120" y="280" width="10" height="10" fill="#808080" />
<rect x="130" y="280" width="10" height="10" fill="#808080" />
<rect x="140" y="280" width="10" height="10" fill="#808080" />
<rect x="150" y="280" width="10" height="10" fill="#808080" />
<rect x="160" y="280" width="10" height="10" fill="#808080" />
<rect x="170" y="280" width="10" height="10" fill="#808080" />
<rect x="180" y="280" width="10" height="10" fill="#808080" />
<rect x="190" y="280" width="10" height="10" fill="#808080" />
<rect x="200" y="280" width="10" height="10" fill="#808080" />
<rect x="210" y="280" width="10" height="10" fill="#808080" />
<rect x="220" y="280" width="10" height="10" fill="#808080" />
<rect x="230" y="280" width="10" height="10" fill="#808080" />
<rect x="240" y="280" width="10" height="10" fill="#808080" />
<rect x="250" y="280" width="10" height="10" fill="#808080" />
<rect x="260" y="280" width="10" height="10" fill="#808080" />
<rect x="270" y="280" width="10" height="10" fill="#808080" />
<rect x="280" y="280" width="10" height="10" fill="#808080" />
<rect x="290" y="280" width="10" height="10" fill="#707070" />
<rect x="20" y="290" width="10" height="10" fill="#707070" />
<rect x="30" y="290" width="10" height="10" fill="#707070" />
<rect x="40" y="290" width="10" height="10" fill="#707070" />
<rect x="50" y="290" width="10" height="10" fill="#707070" />
<rect x="60" y="290" width="10" height="10" fill="#707070" />
<rect x="70" y="290" width="10" height="10" fill="#707070" />
<rect x="80" y="290" width="10" height="10" fill="#707070" />
<rect x="90" y="290" width="10" height="10" fill="#707070" />
<rect x="100" y="290" width="10" height="10" fill="#707070" />
<rect x="110" y="290" width="10" height="10" fill="#707070" />
<rect x="120" y="290" width="10" height="10" fill="#707070" />
<rect x="130" y="290" width="10" height="10" fill="#707070" />
<rect x="140" y="290" width="10" height="10" fill="#707070" />
<rect x="150" y="290" width="10" height="10" fill="#707070" />
<rect x="160" y="290" width="10" height="10" fill="#707070" />
<rect x="170" y="290" width="10" height="10" fill="#707070" />
<rect x="180" y="290" width="10" height="10" fill="#707070" />
<rect x="190" y="290" width="10" height="10" fill="#707070" />
<rect x="200" y="290" width="10" height="10" fill="#707070" />
<rect x="210" y="290" width="10" height="10" fill="#707070" />
<rect x="220" y="290" width="10" height="10" fill="#707070" />
<rect x="230" y="290" width="10" height="10" fill="#707070" />
<rect x="240" y="290" width="10" height="10" fill="#707070" />
<rect x="250" y="290" width="10" height="10" fill="#707070" />
<rect x="260" y="290" width="10" height="10" fill="#707070" />
<rect x="270" y="290" width="10" height="10" fill="#707070" />
<rect x="280" y="290" width="10" height="10" fill="#707070" />
<rect x="290" y="290" width="10" height="10" fill="#707070" />
</svg>