<?xml version="1.0" encoding="UTF-8" ?>
<svg version="1.1" width="320" height="320" xmlns="http://www.w3.org/2000/svg" shape-rendering="crispEdges">
<rect x="90" y="70" width="10" height="10" fill="#7D354E" />
<rect x="100" y="70" width="10" height="10" fill="#7D354E" />
<rect x="110" y="70" width="10" height="10" fill="#7D354E" />
<rect x="120" y="70" width="10" height="10" fill="#7D354E" />
<rect x="180" y="70" width="10" height="10" fill="#AA5472" />
<rect x="190" y="70" width="10" height="10" fill="#AA5472" />
<rect x="200" y="70" width="10" height="10" fill="#AA5472" />
<rect x="210" y="70" width="10" height="10" fill="#7D354E" />
<rect x="70" y="80" width="10" height="10" fill="#7D354E" />
<rect x="80" y="80" width="10" height="10" fill="#7D354E" />
<rect x="90" y="80" width="10" height="10" fill="#AA5472" />
<rect x="100" y="80" width="10" height="10" fill="#AA5472" />
<rect x="110" y="80" width="10" height="10" fill="#AA5472" />
<rect x="120" y="80" width="10" height="10" fill="#AA5472" />
<rect x="130" y="80" width="10" height="10" fill="#7D354E" />
<rect x="170" y="80" width="10" height="10" fill="#7D354E" />
<rect x="180" y="80" width="10" height="10" fill="#AA5472" />
<rect x="190" y="80" width="10" height="10" fill="#E13772" />
<rect x="200" y="80" width="10" height="10" fill="#AA5472" />
<rect x="210" y="80" width="10" height="10" fill="#AA5472" />
<rect x="220" y="80" width="10" height="10" fill="#7D354E" />
<rect x="230" y="80" width="10" height="10" fill="#7D354E" />
<rect x="70" y="90" width="10" height="10" fill="#AA5472" />
<rect x="80" y="90" width="10" height="10" fill="#FFB1CC" />
<rect x="90" y="90" width="10" height="10" fill="#F0739E" />
<rect x="100" y="90" width="10" height="10" fill="#E13772" />
<rect x="110" y="90" width="10" height="10" fill="#FFB1CC" />
<rect x="120" y="90" width="10" height="10" fill="#FFDEE9" />
<rect x="130" y="90" width="10" height="10" fill="#7D354E" />
<rect x="140" y="90" width="10" height="10" fill="#7D354E" />
<rect x="160" y="90" width="10" height="10" fill="#7D354E" />
<rect x="170" y="90" width="10" height="10" fill="#7D354E" />
<rect x="180" y="90" width="10" height="10" fill="#FFB1CC" />
<rect x="190" y="90" width="10" height="10" fill="#E13772" />
<rect x="200" y="90" width="10" height="10" fill="#E13772" />
<rect x="210" y="90" width="10" height="10" fill="#F0739E" />
<rect x="220" y="90" width="10" height="10" fill="#FFB1CC" />
<rect x="230" y="90" width="10" height="10" fill="#AA5472" />
<rect x="60" y="100" width="10" height="10" fill="#AA5472" />
<rect x="70" y="100" width="10" height="10" fill="#FFFFFF" />
<rect x="80" y="100" width="10" height="10" fill="#F0739E" />
<rect x="90" y="100" width="10" height="10" fill="#F0739E" />
<rect x="100" y="100" width="10" height="10" fill="#E13772" />
<rect x="110" y="100" width="10" height="10" fill="#E13772" />
<rect x="120" y="100" width="10" height="10" fill="#F0739E" />
<rect x="130" y="100" width="10" height="10" fill="#F0739E" />
<rect x="140" y="100" width="10" height="10" fill="#7D354E" />
<rect x="150" y="100" width="10" height="10" fill="#7D354E" />
<rect x="160" y="100" width="10" height="10" fill="#7D354E" />
<rect x="170" y="100" width="10" height="10" fill="#F0739E" />
<rect x="180" y="100" width="10" height="10" fill="#E13772" />
<rect x="190" y="100" width="10" height="10" fill="#E13772" />
<rect x="200" y="100" width="10" height="10" fill="#E13772" />
<rect x="210" y="100" width="10" height="10" fill="#E13772" />
<rect x="220" y="100" width="10" height="10" fill="#F0739E" />
<rect x="230" y="100" width="10" height="10" fill="#AA5472" />
<rect x="240" y="100" width="10" height="10" fill="#AA5472" />
<rect x="60" y="110" width="10" height="10" fill="#AA5472" />
<rect x="70" y="110" width="10" height="10" fill="#E13772" />
<rect x="80" y="110" width="10" height="10" fill="#FFFFFF" />
<rect x="90" y="110" width="10" height="10" fill="#E13772" />
<rect x="100" y="110" width="10" height="10" fill="#E13772" />
<rect x="110" y="110" width="10" height="10" fill="#FFDEE9" />
<rect x="120" y="110" width="10" height="10" fill="#FFFFFF" />
<rect x="130" y="110" width="10" height="10" fill="#FFFFFF" />
<rect x="140" y="110" width="10" height="10" fill="#F0739E" />
<rect x="150" y="110" width="10" height="10" fill="#7D354E" />
<rect x="160" y="110" width="10" height="10" fill="#F0739E" />
<rect x="170" y="110" width="10" height="10" fill="#FFFFFF" />
<rect x="180" y="110" width="10" height="10" fill="#FFDEE9" />
<rect x="190" y="110" width="10" height="10" fill="#E13772" />
<rect x="200" y="110" width="10" height="10" fill="#E13772" />
<rect x="210" y="110" width="10" height="10" fill="#E13772" />
<rect x="220" y="110" width="10" height="10" fill="#FFFFFF" />
<rect x="230" y="110" width="10" height="10" fill="#E13772" />
<rect x="240" y="110" width="10" height="10" fill="#AA5472" />
<rect x="60" y="120" width="10" height="10" fill="#7D354E" />
<rect x="70" y="120" width="10" height="10" fill="#E13772" />
<rect x="80" y="120" width="10" height="10" fill="#F0739E" />
<rect x="90" y="120" width="10" height="10" fill="#FFFFFF" />
<rect x="100" y="120" width="10" height="10" fill="#FFDEE9" />
<rect x="110" y="120" width="10" height="10" fill="#FFDEE9" />
<rect x="120" y="120" width="10" height="10" fill="#FFDEE9" />
<rect x="130" y="120" width="10" height="10" fill="#FFDEE9" />
<rect x="140" y="120" width="10" height="10" fill="#FFDEE9" />
<rect x="150" y="120" width="10" height="10" fill="#F0739E" />
<rect x="160" y="120" width="10" height="10" fill="#FFFFFF" />
<rect x="170" y="120" width="10" height="10" fill="#FFDEE9" />
<rect x="180" y="120" width="10" height="10" fill="#FFDEE9" />
<rect x="190" y="120" width="10" height="10" fill="#FFB1CC" />
<rect x="200" y="120" width="10" height="10" fill="#E13772" />
<rect x="210" y="120" width="10" height="10" fill="#FFFFFF" />
<rect x="220" y="120" width="10" height="10" fill="#F0739E" />
<rect x="230" y="120" width="10" height="10" fill="#E13772" />
<rect x="240" y="120" width="10" height="10" fill="#AA5472" />
<rect x="60" y="130" width="10" height="10" fill="#7D354E" />
<rect x="70" y="130" width="10" height="10" fill="#E13772" />
<rect x="80" y="130" width="10" height="10" fill="#F0739E" />
<rect x="90" y="130" width="10" height="10" fill="#F0739E" />
<rect x="100" y="130" width="10" height="10" fill="#FFFFFF" />
<rect x="110" y="130" width="10" height="10" fill="#FFDEE9" />
<rect x="120" y="130" width="10" height="10" fill="#FFDEE9" />
<rect x="130" y="130" width="10" height="10" fill="#FFDEE9" />
<rect x="140" y="130" width="10" height="10" fill="#FFB1CC" />
<rect x="150" y="130" width="10" height="10" fill="#FFFFFF" />
<rect x="160" y="130" width="10" height="10" fill="#FFDEE9" />
<rect x="170" y="130" width="10" height="10" fill="#FFDEE9" />
<rect x="180" y="130" width="10" height="10" fill="#FFB1CC" />
<rect x="190" y="130" width="10" height="10" fill="#F0739E" />
<rect x="200" y="130" width="10" height="10" fill="#FFFFFF" />
<rect x="210" y="130" width="10" height="10" fill="#F0739E" />
<rect x="220" y="130" width="10" height="10" fill="#F0739E" />
<rect x="230" y="130" width="10" height="10" fill="#E13772" />
<rect x="240" y="130" width="10" height="10" fill="#AA5472" />
<rect x="60" y="140" width="10" height="10" fill="#7D354E" />
<rect x="70" y="140" width="10" height="10" fill="#E13772" />
<rect x="80" y="140" width="10" height="10" fill="#F0739E" />
<rect x="90" y="140" width="10" height="10" fill="#F0739E" />
<rect x="100" y="140" width="10" height="10" fill="#FFFFFF" />
<rect x="110" y="140" width="10" height="10" fill="#FFDEE9" />
<rect x="120" y="140" width="10" height="10" fill="#FFDEE9" />
<rect x="130" y="140" width="10" height="10" fill="#FFB1CC" />
<rect x="140" y="140" width="10" height="10" fill="#FFDEE9" />
<rect x="150" y="140" width="10" height="10" fill="#FFDEE9" />
<rect x="160" y="140" width="10" height="10" fill="#FFDEE9" />
<rect x="170" y="140" width="10" height="10" fill="#FFB1CC" />
<rect x="180" y="140" width="10" height="10" fill="#F0739E" />
<rect x="190" y="140" width="10" height="10" fill="#F0739E" />
<rect x="200" y="140" width="10" height="10" fill="#FFFFFF" />
<rect x="210" y="140" width="10" height="10" fill="#F0739E" />
<rect x="220" y="140" width="10" height="10" fill="#F0739E" />
<rect x="230" y="140" width="10" height="10" fill="#E13772" />
<rect x="240" y="140" width="10" height="10" fill="#7D354E" />
<rect x="60" y="150" width="10" height="10" fill="#7D354E" />
<rect x="70" y="150" width="10" height="10" fill="#E13772" />
<rect x="80" y="150" width="10" height="10" fill="#F0739E" />
<rect x="90" y="150" width="10" height="10" fill="#F0739E" />
<rect x="100" y="150" width="10" height="10" fill="#FFFFFF" />
<rect x="110" y="150" width="10" height="10" fill="#FFDEE9" />
<rect x="120" y="150" width="10" height="10" fill="#FFB1CC" />
<rect x="130" y="150" width="10" height="10" fill="#FFDEE9" />
<rect x="140" y="150" width="10" height="10" fill="#FFDEE9" />
<rect x="150" y="150" width="10" height="10" fill="#FFDEE9" />
<rect x="160" y="150" width="10" height="10" fill="#FFB1CC" />
<rect x="170" y="150" width="10" height="10" fill="#F0739E" />
<rect x="180" y="150" width="10" height="10" fill="#F0739E" />
<rect x="190" y="150" width="10" height="10" fill="#F0739E" />
<rect x="200" y="150" width="10" height="10" fill="#FFFFFF" />
<rect x="210" y="150" width="10" height="10" fill="#F0739E" />
<rect x="220" y="150" width="10" height="10" fill="#F0739E" />
<rect x="230" y="150" width="10" height="10" fill="#E13772" />
<rect x="240" y="150" width="10" height="10" fill="#7D354E" />
<rect x="60" y="160" width="10" height="10" fill="#7D354E" />
<rect x="70" y="160" width="10" height="10" fill="#E13772" />
<rect x="80" y="160" width="10" height="10" fill="#E13772" />
<rect x="90" y="160" width="10" height="10" fill="#FFDEE9" />
<rect x="100" y="160" width="10" height="10" fill="#F0739E" />
<rect x="110" y="160" width="10" height="10" fill="#FFFFFF" />
<rect x="120" y="160" width="10" height="10" fill="#FFDEE9" />
<rect x="130" y="160" width="10" height="10" fill="#FFDEE9" />
<rect x="140" y="160" width="10" height="10" fill="#FFDEE9" />
<rect x="150" y="160" width="10" height="10" fill="#FFB1CC" />
<rect x="160" y="160" width="10" height="10" fill="#F0739E" />
<rect x="170" y="160" width="10" height="10" fill="#F0739E" />
<rect x="180" y="160" width="10" height="10" fill="#F0739E" />
<rect x="190" y="160" width="10" height="10" fill="#FFFFFF" />
<rect x="200" y="160" width="10" height="10" fill="#E13772" />
<rect x="210" y="160" width="10" height="10" fill="#FFDEE9" />
<rect x="220" y="160" width="10" height="10" fill="#E13772" />
<rect x="230" y="160" width="10" height="10" fill="#E13772" />
<rect x="240" y="160" width="10" height="10" fill="#7D354E" />
<rect x="70" y="170" width="10" height="10" fill="#7D354E" />
<rect x="80" y="170" width="10" height="10" fill="#FFDEE9" />
<rect x="90" y="170" width="10" height="10" fill="#E13772" />
<rect x="100" y="170" width="10" height="10" fill="#F0739E" />
<rect x="110" y="170" width="10" height="10" fill="#F0739E" />
<rect x="120" y="170" width="10" height="10" fill="#FFFFFF" />
<rect x="130" y="170" width="10" height="10" fill="#FFDEE9" />
<rect x="140" y="170" width="10" height="10" fill="#FFB1CC" />
<rect x="150" y="170" width="10" height="10" fill="#F0739E" />
<rect x="160" y="170" width="10" height="10" fill="#F0739E" />
<rect x="170" y="170" width="10" height="10" fill="#F0739E" />
<rect x="180" y="170" width="10" height="10" fill="#FFFFFF" />
<rect x="190" y="170" width="10" height="10" fill="#E13772" />
<rect x="200" y="170" width="10" height="10" fill="#E13772" />
<rect x="210" y="170" width="10" height="10" fill="#E13772" />
<rect x="220" y="170" width="10" height="10" fill="#FFDEE9" />
<rect x="230" y="170" width="10" height="10" fill="#7D354E" />
<rect x="70" y="180" width="10" height="10" fill="#7D354E" />
<rect x="80" y="180" width="10" height="10" fill="#E13772" />
<rect x="90" y="180" width="10" height="10" fill="#E13772" />
<rect x="100" y="180" width="10" height="10" fill="#F0739E" />
<rect x="110" y="180" width="10" height="10" fill="#F0739E" />
<rect x="120" y="180" width="10" height="10" fill="#F0739E" />
<rect x="130" y="180" width="10" height="10" fill="#FFFFFF" />
<rect x="140" y="180" width="10" height="10" fill="#F0739E" />
<rect x="150" y="180" width="10" height="10" fill="#F0739E" />
<rect x="160" y="180" width="10" height="10" fill="#F0739E" />
<rect x="170" y="180" width="10" height="10" fill="#FFFFFF" />
<rect x="180" y="180" width="10" height="10" fill="#E13772" />
<rect x="190" y="180" width="10" height="10" fill="#E13772" />
<rect x="200" y="180" width="10" height="10" fill="#A02A53" />
<rect x="210" y="180" width="10" height="10" fill="#E13772" />
<rect x="220" y="180" width="10" height="10" fill="#E13772" />
<rect x="230" y="180" width="10" height="10" fill="#7D354E" />
<rect x="80" y="190" width="10" height="10" fill="#7D354E" />
<rect x="90" y="190" width="10" height="10" fill="#A02A53" />
<rect x="100" y="190" width="10" height="10" fill="#E13772" />
<rect x="110" y="190" width="10" height="10" fill="#F0739E" />
<rect x="120" y="190" width="10" height="10" fill="#F0739E" />
<rect x="130" y="190" width="10" height="10" fill="#F0739E" />
<rect x="140" y="190" width="10" height="10" fill="#FFFFFF" />
<rect x="150" y="190" width="10" height="10" fill="#F0739E" />
<rect x="160" y="190" width="10" height="10" fill="#FFFFFF" />
<rect x="170" y="190" width="10" height="10" fill="#E13772" />
<rect x="180" y="190" width="10" height="10" fill="#E13772" />
<rect x="190" y="190" width="10" height="10" fill="#A02A53" />
<rect x="200" y="190" width="10" height="10" fill="#E13772" />
<rect x="210" y="190" width="10" height="10" fill="#A02A53" />
<rect x="220" y="190" width="10" height="10" fill="#7D354E" />
<rect x="90" y="200" width="10" height="10" fill="#7D354E" />
<rect x="100" y="200" width="10" height="10" fill="#A02A53" />
<rect x="110" y="200" width="10" height="10" fill="#E13772" />
<rect x="120" y="200" width="10" height="10" fill="#E65789" />
<rect x="130" y="200" width="10" height="10" fill="#F0739E" />
<rect x="140" y="200" width="10" height="10" fill="#F0739E" />
<rect x="150" y="200" width="10" height="10" fill="#FFFFFF" />
<rect x="160" y="200" width="10" height="10" fill="#E13772" />
<rect x="170" y="200" width="10" height="10" fill="#E13772" />
<rect x="180" y="200" width="10" height="10" fill="#E13772" />
<rect x="190" y="200" width="10" height="10" fill="#E13772" />
<rect x="200" y="200" width="10" height="10" fill="#A02A53" />
<rect x="210" y="200" width="10" height="10" fill="#7D354E" />
<rect x="100" y="210" width="10" height="10" fill="#7D354E" />
<rect x="110" y="210" width="10" height="10" fill="#A02A53" />
<rect x="120" y="210" width="10" height="10" fill="#E13772" />
<rect x="130" y="210" width="10" height="10" fill="#E65789" />
<rect x="140" y="210" width="10" height="10" fill="#E65789" />
<rect x="150" y="210" width="10" height="10" fill="#F0739E" />
<rect x="160" y="210" width="10" height="10" fill="#A02A53" />
<rect x="170" y="210" width="10" height="10" fill="#E13772" />
<rect x="180" y="210" width="10" height="10" fill="#E13772" />
<rect x="190" y="210" width="10" height="10" fill="#A02A53" />
<rect x="200" y="210" width="10" height="10" fill="#7D354E" />
<rect x="110" y="220" width="10" height="10" fill="#7D354E" />
<rect x="120" y="220" width="10" height="10" fill="#A02A53" />
<rect x="130" y="220" width="10" height="10" fill="#E13772" />
<rect x="140" y="220" width="10" height="10" fill="#E13772" />
<rect x="150" y="220" width="10" height="10" fill="#FFFFFF" />
<rect x="160" y="220" width="10" height="10" fill="#A02A53" />
<rect x="170" y="220" width="10" height="10" fill="#A02A53" />
<rect x="180" y="220" width="10" height="10" fill="#A02A53" />
<rect x="190" y="220" width="10" height="10" fill="#7D354E" />
<rect x="130" y="230" width="10" height="10" fill="#7D354E" />
<rect x="140" y="230" width="10" height="10" fill="#E13772" />
<rect x="150" y="230" width="10" height="10" fill="#FFDEE9" />
<rect x="160" y="230" width="10" height="10" fill="#A02A53" />
<rect x="170" y="230" width="10" height="10" fill="#7D354E" />
<rect x="140" y="240" width="10" height="10" fill="#7D354E" />
<rect x="150" y="240" width="10" height="10" fill="#7D354E" />
<rect x="160" y="240" width="10" height="10" fill="#7D354E" />
</svg>