<?xml version="1.0" encoding="UTF-8" ?>
<svg version="1.1" width="320" height="320" xmlns="http://www.w3.org/2000/svg" shape-rendering="crispEdges">
<rect x="150" y="10" width="10" height="10" fill="#D25B00" />
<rect x="140" y="20" width="10" height="10" fill="#D25B00" />
<rect x="150" y="20" width="10" height="10" fill="#FAE02F" />
<rect x="160" y="20" width="10" height="10" fill="#D25B00" />
<rect x="140" y="30" width="10" height="10" fill="#D25B00" />
<rect x="150" y="30" width="10" height="10" fill="#FFECCF" />
<rect x="160" y="30" width="10" height="10" fill="#D25B00" />
<rect x="80" y="40" width="10" height="10" fill="#D25B00" />
<rect x="90" y="40" width="10" height="10" fill="#D25B00" />
<rect x="130" y="40" width="10" height="10" fill="#D25B00" />
<rect x="140" y="40" width="10" height="10" fill="#FFECCF" />
<rect x="150" y="40" width="10" height="10" fill="#FFAB29" />
<rect x="160" y="40" width="10" height="10" fill="#FAE02F" />
<rect x="170" y="40" width="10" height="10" fill="#D25B00" />
<rect x="210" y="40" width="10" height="10" fill="#D25B00" />
<rect x="220" y="40" width="10" height="10" fill="#D25B00" />
<rect x="80" y="50" width="10" height="10" fill="#D25B00" />
<rect x="90" y="50" width="10" height="10" fill="#FFECCF" />
<rect x="100" y="50" width="10" height="10" fill="#D25B00" />
<rect x="130" y="50" width="10" height="10" fill="#D25B00" />
<rect x="140" y="50" width="10" height="10" fill="#FFAB29" />
<rect x="150" y="50" width="10" height="10" fill="#FAE02F" />
<rect x="160" y="50" width="10" height="10" fill="#FAE02F" />
<rect x="170" y="50" width="10" height="10" fill="#D25B00" />
<rect x="200" y="50" width="10" height="10" fill="#D25B00" />
<rect x="210" y="50" width="10" height="10" fill="#FFECCF" />
<rect x="220" y="50" width="10" height="10" fill="#D25B00" />
<rect x="90" y="60" width="10" height="10" fill="#D25B00" />
<rect x="100" y="60" width="10" height="10" fill="#FFECCF" />
<rect x="110" y="60" width="10" height="10" fill="#D25B00" />
<rect x="120" y="60" width="10" height="10" fill="#D25B00" />
<rect x="130" y="60" width="10" height="10" fill="#FFECCF" />
<rect x="140" y="60" width="10" height="10" fill="#FFAB29" />
<rect x="150" y="60" width="10" height="10" fill="#FAE02F" />
<rect x="160" y="60" width="10" height="10" fill="#FAE02F" />
<rect x="170" y="60" width="10" height="10" fill="#FAE02F" />
<rect x="180" y="60" width="10" height="10" fill="#D25B00" />
<rect x="190" y="60" width="10" height="10" fill="#D25B00" />
<rect x="200" y="60" width="10" height="10" fill="#FFECCF" />
<rect x="210" y="60" width="10" height="10" fill="#D25B00" />
<rect x="90" y="70" width="10" height="10" fill="#D25B00" />
<rect x="100" y="70" width="10" height="10" fill="#FFAB29" />
<rect x="110" y="70" width="10" height="10" fill="#FFECCF" />
<rect x="120" y="70" width="10" height="10" fill="#FAE02F" />
<rect x="130" y="70" width="10" height="10" fill="#FAE02F" />
<rect x="140" y="70" width="10" height="10" fill="#FAE02F" />
<rect x="150" y="70" width="10" height="10" fill="#FFECCF" />
<rect x="160" y="70" width="10" height="10" fill="#FAE02F" />
<rect x="170" y="70" width="10" height="10" fill="#FAE02F" />
<rect x="180" y="70" width="10" height="10" fill="#FAE02F" />
<rect x="190" y="70" width="10" height="10" fill="#FFECCF" />
<rect x="200" y="70" width="10" height="10" fill="#FFAB29" />
<rect x="210" y="70" width="10" height="10" fill="#D25B00" />
<rect x="100" y="80" width="10" height="10" fill="#D25B00" />
<rect x="110" y="80" width="10" height="10" fill="#FFAB29" />
<rect x="120" y="80" width="10" height="10" fill="#FAE02F" />
<rect x="130" y="80" width="10" height="10" fill="#FAE02F" />
<rect x="140" y="80" width="10" height="10" fill="#FAE02F" />
<rect x="150" y="80" width="10" height="10" fill="#FFECCF" />
<rect x="160" y="80" width="10" height="10" fill="#FAE02F" />
<rect x="170" y="80" width="10" height="10" fill="#FAE02F" />
<rect x="180" y="80" width="10" height="10" fill="#FAE02F" />
<rect x="190" y="80" width="10" height="10" fill="#FFAB29" />
<rect x="200" y="80" width="10" height="10" fill="#D25B00" />
<rect x="100" y="90" width="10" height="10" fill="#D25B00" />
<rect x="110" y="90" width="10" height="10" fill="#FFAB29" />
<rect x="120" y="90" width="10" height="10" fill="#FFECCF" />
<rect x="130" y="90" width="10" height="10" fill="#FAE02F" />
<rect x="140" y="90" width="10" height="10" fill="#FAE02F" />
<rect x="150" y="90" width="10" height="10" fill="#FAE02F" />
<rect x="160" y="90" width="10" height="10" fill="#FAE02F" />
<rect x="170" y="90" width="10" height="10" fill="#FAE02F" />
<rect x="180" y="90" width="10" height="10" fill="#FFAB29" />
<rect x="190" y="90" width="10" height="10" fill="#FFAB29" />
<rect x="200" y="90" width="10" height="10" fill="#D25B00" />
<rect x="100" y="100" width="10" height="10" fill="#000000" />
<rect x="110" y="100" width="10" height="10" fill="#D25B00" />
<rect x="120" y="100" width="10" height="10" fill="#FFAB29" />
<rect x="130" y="100" width="10" height="10" fill="#FFECCF" />
<rect x="140" y="100" width="10" height="10" fill="#255A44" />
<rect x="150" y="100" width="10" height="10" fill="#255A44" />
<rect x="160" y="100" width="10" height="10" fill="#255A44" />
<rect x="170" y="100" width="10" height="10" fill="#FAE02F" />
<rect x="180" y="100" width="10" height="10" fill="#FFAB29" />
<rect x="190" y="100" width="10" height="10" fill="#D25B00" />
<rect x="200" y="100" width="10" height="10" fill="#000000" />
<rect x="90" y="110" width="10" height="10" fill="#000000" />
<rect x="100" y="110" width="10" height="10" fill="#000000" />
<rect x="110" y="110" width="10" height="10" fill="#255A44" />
<rect x="120" y="110" width="10" height="10" fill="#255A44" />
<rect x="130" y="110" width="10" height="10" fill="#255A44" />
<rect x="140" y="110" width="10" height="10" fill="#3D9672" />
<rect x="150" y="110" width="10" height="10" fill="#3D9672" />
<rect x="160" y="110" width="10" height="10" fill="#3D9672" />
<rect x="170" y="110" width="10" height="10" fill="#255A44" />
<rect x="180" y="110" width="10" height="10" fill="#000000" />
<rect x="190" y="110" width="10" height="10" fill="#255A44" />
<rect x="200" y="110" width="10" height="10" fill="#255A44" />
<rect x="210" y="110" width="10" height="10" fill="#000000" />
<rect x="60" y="120" width="10" height="10" fill="#255A44" />
<rect x="70" y="120" width="10" height="10" fill="#255A44" />
<rect x="80" y="120" width="10" height="10" fill="#3D9672" />
<rect x="90" y="120" width="10" height="10" fill="#3D9672" />
<rect x="100" y="120" width="10" height="10" fill="#255A44" />
<rect x="110" y="120" width="10" height="10" fill="#3D9672" />
<rect x="120" y="120" width="10" height="10" fill="#3D9672" />
<rect x="130" y="120" width="10" height="10" fill="#3D9672" />
<rect x="140" y="120" width="10" height="10" fill="#3D9672" />
<rect x="150" y="120" width="10" height="10" fill="#317D5E" />
<rect x="160" y="120" width="10" height="10" fill="#255A44" />
<rect x="170" y="120" width="10" height="10" fill="#3D9672" />
<rect x="180" y="120" width="10" height="10" fill="#3D9672" />
<rect x="190" y="120" width="10" height="10" fill="#3D9672" />
<rect x="200" y="120" width="10" height="10" fill="#3D9672" />
<rect x="210" y="120" width="10" height="10" fill="#317D5E" />
<rect x="220" y="120" width="10" height="10" fill="#255A44" />
<rect x="230" y="120" width="10" height="10" fill="#255A44" />
<rect x="60" y="130" width="10" height="10" fill="#255A44" />
<rect x="70" y="130" width="10" height="10" fill="#3D9672" />
<rect x="80" y="130" width="10" height="10" fill="#3D9672" />
<rect x="90" y="130" width="10" height="10" fill="#3D9672" />
<rect x="100" y="130" width="10" height="10" fill="#3D9672" />
<rect x="110" y="130" width="10" height="10" fill="#255A44" />
<rect x="120" y="130" width="10" height="10" fill="#3D9672" />
<rect x="130" y="130" width="10" height="10" fill="#3D9672" />
<rect x="140" y="130" width="10" height="10" fill="#3D9672" />
<rect x="150" y="130" width="10" height="10" fill="#255A44" />
<rect x="160" y="130" width="10" height="10" fill="#3D9672" />
<rect x="170" y="130" width="10" height="10" fill="#3D9672" />
<rect x="180" y="130" width="10" height="10" fill="#3D9672" />
<rect x="190" y="130" width="10" height="10" fill="#3D9672" />
<rect x="200" y="130" width="10" height="10" fill="#3D9672" />
<rect x="210" y="130" width="10" height="10" fill="#3D9672" />
<rect x="220" y="130" width="10" height="10" fill="#3D9672" />
<rect x="230" y="130" width="10" height="10" fill="#317D5E" />
<rect x="50" y="140" width="10" height="10" fill="#255A44" />
<rect x="60" y="140" width="10" height="10" fill="#3D9672" />
<rect x="70" y="140" width="10" height="10" fill="#3D9672" />
<rect x="80" y="140" width="10" height="10" fill="#3D9672" />
<rect x="90" y="140" width="10" height="10" fill="#3D9672" />
<rect x="100" y="140" width="10" height="10" fill="#3D9672" />
<rect x="110" y="140" width="10" height="10" fill="#3D9672" />
<rect x="120" y="140" width="10" height="10" fill="#317D5E" />
<rect x="130" y="140" width="10" height="10" fill="#317D5E" />
<rect x="140" y="140" width="10" height="10" fill="#3D9672" />
<rect x="150" y="140" width="10" height="10" fill="#3D9672" />
<rect x="160" y="140" width="10" height="10" fill="#3D9672" />
<rect x="170" y="140" width="10" height="10" fill="#3D9672" />
<rect x="180" y="140" width="10" height="10" fill="#3D9672" />
<rect x="190" y="140" width="10" height="10" fill="#317D5E" />
<rect x="200" y="140" width="10" height="10" fill="#3D9672" />
<rect x="210" y="140" width="10" height="10" fill="#255A44" />
<rect x="220" y="140" width="10" height="10" fill="#317D5E" />
<rect x="230" y="140" width="10" height="10" fill="#255A44" />
<rect x="240" y="140" width="10" height="10" fill="#000000" />
<rect x="50" y="150" width="10" height="10" fill="#255A44" />
<rect x="60" y="150" width="10" height="10" fill="#3D9672" />
<rect x="70" y="150" width="10" height="10" fill="#3D9672" />
<rect x="80" y="150" width="10" height="10" fill="#317D5E" />
<rect x="90" y="150" width="10" height="10" fill="#3D9672" />
<rect x="100" y="150" width="10" height="10" fill="#3D9672" />
<rect x="110" y="150" width="10" height="10" fill="#317D5E" />
<rect x="120" y="150" width="10" height="10" fill="#3D9672" />
<rect x="130" y="150" width="10" height="10" fill="#3D9672" />
<rect x="140" y="150" width="10" height="10" fill="#3D9672" />
<rect x="150" y="150" width="10" height="10" fill="#3D9672" />
<rect x="160" y="150" width="10" height="10" fill="#3D9672" />
<rect x="170" y="150" width="10" height="10" fill="#3D9672" />
<rect x="180" y="150" width="10" height="10" fill="#3D9672" />
<rect x="190" y="150" width="10" height="10" fill="#3D9672" />
<rect x="200" y="150" width="10" height="10" fill="#317D5E" />
<rect x="210" y="150" width="10" height="10" fill="#3D9672" />
<rect x="220" y="150" width="10" height="10" fill="#255A44" />
<rect x="230" y="150" width="10" height="10" fill="#255A44" />
<rect x="240" y="150" width="10" height="10" fill="#255A44" />
<rect x="50" y="160" width="10" height="10" fill="#000000" />
<rect x="60" y="160" width="10" height="10" fill="#255A44" />
<rect x="70" y="160" width="10" height="10" fill="#255A44" />
<rect x="80" y="160" width="10" height="10" fill="#3D9672" />
<rect x="90" y="160" width="10" height="10" fill="#317D5E" />
<rect x="100" y="160" width="10" height="10" fill="#317D5E" />
<rect x="110" y="160" width="10" height="10" fill="#3D9672" />
<rect x="120" y="160" width="10" height="10" fill="#3D9672" />
<rect x="130" y="160" width="10" height="10" fill="#3D9672" />
<rect x="140" y="160" width="10" height="10" fill="#3D9672" />
<rect x="150" y="160" width="10" height="10" fill="#3D9672" />
<rect x="160" y="160" width="10" height="10" fill="#3D9672" />
<rect x="170" y="160" width="10" height="10" fill="#317D5E" />
<rect x="180" y="160" width="10" height="10" fill="#3D9672" />
<rect x="190" y="160" width="10" height="10" fill="#3D9672" />
<rect x="200" y="160" width="10" height="10" fill="#3D9672" />
<rect x="210" y="160" width="10" height="10" fill="#3D9672" />
<rect x="220" y="160" width="10" height="10" fill="#3D9672" />
<rect x="230" y="160" width="10" height="10" fill="#3D9672" />
<rect x="240" y="160" width="10" height="10" fill="#255A44" />
<rect x="250" y="160" width="10" height="10" fill="#000000" />
<rect x="50" y="170" width="10" height="10" fill="#000000" />
<rect x="60" y="170" width="10" height="10" fill="#255A44" />
<rect x="70" y="170" width="10" height="10" fill="#3D9672" />
<rect x="80" y="170" width="10" height="10" fill="#3D9672" />
<rect x="90" y="170" width="10" height="10" fill="#3D9672" />
<rect x="100" y="170" width="10" height="10" fill="#3D9672" />
<rect x="110" y="170" width="10" height="10" fill="#3D9672" />
<rect x="120" y="170" width="10" height="10" fill="#3D9672" />
<rect x="130" y="170" width="10" height="10" fill="#317D5E" />
<rect x="140" y="170" width="10" height="10" fill="#3D9672" />
<rect x="150" y="170" width="10" height="10" fill="#3D9672" />
<rect x="160" y="170" width="10" height="10" fill="#3D9672" />
<rect x="170" y="170" width="10" height="10" fill="#3D9672" />
<rect x="180" y="170" width="10" height="10" fill="#317D5E" />
<rect x="190" y="170" width="10" height="10" fill="#3D9672" />
<rect x="200" y="170" width="10" height="10" fill="#3D9672" />
<rect x="210" y="170" width="10" height="10" fill="#3D9672" />
<rect x="220" y="170" width="10" height="10" fill="#3D9672" />
<rect x="230" y="170" width="10" height="10" fill="#3D9672" />
<rect x="240" y="170" width="10" height="10" fill="#3D9672" />
<rect x="250" y="170" width="10" height="10" fill="#255A44" />
<rect x="50" y="180" width="10" height="10" fill="#000000" />
<rect x="60" y="180" width="10" height="10" fill="#3D9672" />
<rect x="70" y="180" width="10" height="10" fill="#3D9672" />
<rect x="80" y="180" width="10" height="10" fill="#3D9672" />
<rect x="90" y="180" width="10" height="10" fill="#317D5E" />
<rect x="100" y="180" width="10" height="10" fill="#3D9672" />
<rect x="110" y="180" width="10" height="10" fill="#3D9672" />
<rect x="120" y="180" width="10" height="10" fill="#317D5E" />
<rect x="130" y="180" width="10" height="10" fill="#317D5E" />
<rect x="140" y="180" width="10" height="10" fill="#3D9672" />
<rect x="150" y="180" width="10" height="10" fill="#3D9672" />
<rect x="160" y="180" width="10" height="10" fill="#3D9672" />
<rect x="170" y="180" width="10" height="10" fill="#317D5E" />
<rect x="180" y="180" width="10" height="10" fill="#255A44" />
<rect x="190" y="180" width="10" height="10" fill="#317D5E" />
<rect x="200" y="180" width="10" height="10" fill="#3D9672" />
<rect x="210" y="180" width="10" height="10" fill="#3D9672" />
<rect x="220" y="180" width="10" height="10" fill="#317D5E" />
<rect x="230" y="180" width="10" height="10" fill="#3D9672" />
<rect x="240" y="180" width="10" height="10" fill="#3D9672" />
<rect x="250" y="180" width="10" height="10" fill="#255A44" />
<rect x="50" y="190" width="10" height="10" fill="#000000" />
<rect x="60" y="190" width="10" height="10" fill="#3D9672" />
<rect x="70" y="190" width="10" height="10" fill="#3D9672" />
<rect x="80" y="190" width="10" height="10" fill="#3D9672" />
<rect x="90" y="190" width="10" height="10" fill="#3D9672" />
<rect x="100" y="190" width="10" height="10" fill="#317D5E" />
<rect x="110" y="190" width="10" height="10" fill="#255A44" />
<rect x="120" y="190" width="10" height="10" fill="#317D5E" />
<rect x="130" y="190" width="10" height="10" fill="#3D9672" />
<rect x="140" y="190" width="10" height="10" fill="#317D5E" />
<rect x="150" y="190" width="10" height="10" fill="#317D5E" />
<rect x="160" y="190" width="10" height="10" fill="#317D5E" />
<rect x="170" y="190" width="10" height="10" fill="#255A44" />
<rect x="180" y="190" width="10" height="10" fill="#317D5E" />
<rect x="190" y="190" width="10" height="10" fill="#3D9672" />
<rect x="200" y="190" width="10" height="10" fill="#3D9672" />
<rect x="210" y="190" width="10" height="10" fill="#317D5E" />
<rect x="220" y="190" width="10" height="10" fill="#255A44" />
<rect x="230" y="190" width="10" height="10" fill="#3D9672" />
<rect x="240" y="190" width="10" height="10" fill="#317D5E" />
<rect x="250" y="190" width="10" height="10" fill="#000000" />
<rect x="40" y="200" width="10" height="10" fill="#000000" />
<rect x="50" y="200" width="10" height="10" fill="#000000" />
<rect x="60" y="200" width="10" height="10" fill="#3D9672" />
<rect x="70" y="200" width="10" height="10" fill="#3D9672" />
<rect x="80" y="200" width="10" height="10" fill="#317D5E" />
<rect x="90" y="200" width="10" height="10" fill="#317D5E" />
<rect x="100" y="200" width="10" height="10" fill="#255A44" />
<rect x="110" y="200" width="10" height="10" fill="#255A44" />
<rect x="120" y="200" width="10" height="10" fill="#317D5E" />
<rect x="130" y="200" width="10" height="10" fill="#317D5E" />
<rect x="140" y="200" width="10" height="10" fill="#255A44" />
<rect x="150" y="200" width="10" height="10" fill="#255A44" />
<rect x="160" y="200" width="10" height="10" fill="#255A44" />
<rect x="170" y="200" width="10" height="10" fill="#916E54" />
<rect x="180" y="200" width="10" height="10" fill="#255A44" />
<rect x="190" y="200" width="10" height="10" fill="#317D5E" />
<rect x="200" y="200" width="10" height="10" fill="#317D5E" />
<rect x="210" y="200" width="10" height="10" fill="#255A44" />
<rect x="220" y="200" width="10" height="10" fill="#3D9672" />
<rect x="230" y="200" width="10" height="10" fill="#3D9672" />
<rect x="240" y="200" width="10" height="10" fill="#000000" />
<rect x="250" y="200" width="10" height="10" fill="#000000" />
<rect x="260" y="200" width="10" height="10" fill="#000000" />
<rect x="30" y="210" width="10" height="10" fill="#000000" />
<rect x="40" y="210" width="10" height="10" fill="#000000" />
<rect x="50" y="210" width="10" height="10" fill="#000000" />
<rect x="60" y="210" width="10" height="10" fill="#317D5E" />
<rect x="70" y="210" width="10" height="10" fill="#255A44" />
<rect x="80" y="210" width="10" height="10" fill="#916E54" />
<rect x="90" y="210" width="10" height="10" fill="#916E54" />
<rect x="100" y="210" width="10" height="10" fill="#916E54" />
<rect x="110" y="210" width="10" height="10" fill="#916E54" />
<rect x="120" y="210" width="10" height="10" fill="#916E54" />
<rect x="130" y="210" width="10" height="10" fill="#916E54" />
<rect x="140" y="210" width="10" height="10" fill="#916E54" />
<rect x="150" y="210" width="10" height="10" fill="#916E54" />
<rect x="160" y="210" width="10" height="10" fill="#916E54" />
<rect x="170" y="210" width="10" height="10" fill="#916E54" />
<rect x="180" y="210" width="10" height="10" fill="#916E54" />
<rect x="190" y="210" width="10" height="10" fill="#916E54" />
<rect x="200" y="210" width="10" height="10" fill="#916E54" />
<rect x="210" y="210" width="10" height="10" fill="#916E54" />
<rect x="220" y="210" width="10" height="10" fill="#916E54" />
<rect x="230" y="210" width="10" height="10" fill="#826148" />
<rect x="240" y="210" width="10" height="10" fill="#000000" />
<rect x="250" y="210" width="10" height="10" fill="#000000" />
<rect x="260" y="210" width="10" height="10" fill="#000000" />
<rect x="270" y="210" width="10" height="10" fill="#000000" />
<rect x="30" y="220" width="10" height="10" fill="#000000" />
<rect x="40" y="220" width="10" height="10" fill="#000000" />
<rect x="50" y="220" width="10" height="10" fill="#000000" />
<rect x="60" y="220" width="10" height="10" fill="#503B2C" />
<rect x="70" y="220" width="10" height="10" fill="#826148" />
<rect x="80" y="220" width="10" height="10" fill="#916E54" />
<rect x="90" y="220" width="10" height="10" fill="#243722" />
<rect x="100" y="220" width="10" height="10" fill="#243722" />
<rect x="110" y="220" width="10" height="10" fill="#243722" />
<rect x="120" y="220" width="10" height="10" fill="#243722" />
<rect x="130" y="220" width="10" height="10" fill="#916E54" />
<rect x="140" y="220" width="10" height="10" fill="#916E54" />
<rect x="150" y="220" width="10" height="10" fill="#A07D64" />
<rect x="160" y="220" width="10" height="10" fill="#916E54" />
<rect x="170" y="220" width="10" height="10" fill="#916E54" />
<rect x="180" y="220" width="10" height="10" fill="#243722" />
<rect x="190" y="220" width="10" height="10" fill="#243722" />
<rect x="200" y="220" width="10" height="10" fill="#243722" />
<rect x="210" y="220" width="10" height="10" fill="#243722" />
<rect x="220" y="220" width="10" height="10" fill="#916E54" />
<rect x="230" y="220" width="10" height="10" fill="#826148" />
<rect x="240" y="220" width="10" height="10" fill="#000000" />
<rect x="250" y="220" width="10" height="10" fill="#000000" />
<rect x="260" y="220" width="10" height="10" fill="#000000" />
<rect x="270" y="220" width="10" height="10" fill="#000000" />
<rect x="30" y="230" width="10" height="10" fill="#000000" />
<rect x="40" y="230" width="10" height="10" fill="#000000" />
<rect x="50" y="230" width="10" height="10" fill="#000000" />
<rect x="60" y="230" width="10" height="10" fill="#503B2C" />
<rect x="70" y="230" width="10" height="10" fill="#826148" />
<rect x="80" y="230" width="10" height="10" fill="#916E54" />
<rect x="90" y="230" width="10" height="10" fill="#A07D64" />
<rect x="100" y="230" width="10" height="10" fill="#243722" />
<rect x="110" y="230" width="10" height="10" fill="#243722" />
<rect x="120" y="230" width="10" height="10" fill="#FFFFFF" />
<rect x="130" y="230" width="10" height="10" fill="#A07D64" />
<rect x="140" y="230" width="10" height="10" fill="#A07D64" />
<rect x="150" y="230" width="10" height="10" fill="#A07D64" />
<rect x="160" y="230" width="10" height="10" fill="#A07D64" />
<rect x="170" y="230" width="10" height="10" fill="#A07D64" />
<rect x="180" y="230" width="10" height="10" fill="#243722" />
<rect x="190" y="230" width="10" height="10" fill="#243722" />
<rect x="200" y="230" width="10" height="10" fill="#FFFFFF" />
<rect x="210" y="230" width="10" height="10" fill="#A07D64" />
<rect x="220" y="230" width="10" height="10" fill="#916E54" />
<rect x="230" y="230" width="10" height="10" fill="#826148" />
<rect x="240" y="230" width="10" height="10" fill="#000000" />
<rect x="250" y="230" width="10" height="10" fill="#000000" />
<rect x="260" y="230" width="10" height="10" fill="#000000" />
<rect x="270" y="230" width="10" height="10" fill="#000000" />
<rect x="30" y="240" width="10" height="10" fill="#000000" />
<rect x="40" y="240" width="10" height="10" fill="#000000" />
<rect x="50" y="240" width="10" height="10" fill="#000000" />
<rect x="60" y="240" width="10" height="10" fill="#503B2C" />
<rect x="70" y="240" width="10" height="10" fill="#826148" />
<rect x="80" y="240" width="10" height="10" fill="#916E54" />
<rect x="90" y="240" width="10" height="10" fill="#A07D64" />
<rect x="100" y="240" width="10" height="10" fill="#243722" />
<rect x="110" y="240" width="10" height="10" fill="#FFFFFF" />
<rect x="120" y="240" width="10" height="10" fill="#243722" />
<rect x="130" y="240" width="10" height="10" fill="#A07D64" />
<rect x="140" y="240" width="10" height="10" fill="#A07D64" />
<rect x="150" y="240" width="10" height="10" fill="#A07D64" />
<rect x="160" y="240" width="10" height="10" fill="#A07D64" />
<rect x="170" y="240" width="10" height="10" fill="#A07D64" />
<rect x="180" y="240" width="10" height="10" fill="#243722" />
<rect x="190" y="240" width="10" height="10" fill="#FFFFFF" />
<rect x="200" y="240" width="10" height="10" fill="#243722" />
<rect x="210" y="240" width="10" height="10" fill="#A07D64" />
<rect x="220" y="240" width="10" height="10" fill="#916E54" />
<rect x="230" y="240" width="10" height="10" fill="#826148" />
<rect x="240" y="240" width="10" height="10" fill="#000000" />
<rect x="250" y="240" width="10" height="10" fill="#000000" />
<rect x="260" y="240" width="10" height="10" fill="#000000" />
<rect x="270" y="240" width="10" height="10" fill="#000000" />
<rect x="40" y="250" width="10" height="10" fill="#000000" />
<rect x="50" y="250" width="10" height="10" fill="#000000" />
<rect x="60" y="250" width="10" height="10" fill="#000000" />
<rect x="70" y="250" width="10" height="10" fill="#826148" />
<rect x="80" y="250" width="10" height="10" fill="#916E54" />
<rect x="90" y="250" width="10" height="10" fill="#A07D64" />
<rect x="100" y="250" width="10" height="10" fill="#304B2E" />
<rect x="110" y="250" width="10" height="10" fill="#304B2E" />
<rect x="120" y="250" width="10" height="10" fill="#304B2E" />
<rect x="130" y="250" width="10" height="10" fill="#AF8F77" />
<rect x="140" y="250" width="10" height="10" fill="#AF8F77" />
<rect x="150" y="250" width="10" height="10" fill="#AF8F77" />
<rect x="160" y="250" width="10" height="10" fill="#AF8F77" />
<rect x="170" y="250" width="10" height="10" fill="#AF8F77" />
<rect x="180" y="250" width="10" height="10" fill="#304B2E" />
<rect x="190" y="250" width="10" height="10" fill="#304B2E" />
<rect x="200" y="250" width="10" height="10" fill="#304B2E" />
<rect x="210" y="250" width="10" height="10" fill="#A07D64" />
<rect x="220" y="250" width="10" height="10" fill="#916E54" />
<rect x="230" y="250" width="10" height="10" fill="#826148" />
<rect x="240" y="250" width="10" height="10" fill="#000000" />
<rect x="250" y="250" width="10" height="10" fill="#000000" />
<rect x="260" y="250" width="10" height="10" fill="#000000" />
<rect x="50" y="260" width="10" height="10" fill="#000000" />
<rect x="60" y="260" width="10" height="10" fill="#000000" />
<rect x="70" y="260" width="10" height="10" fill="#826148" />
<rect x="80" y="260" width="10" height="10" fill="#916E54" />
<rect x="90" y="260" width="10" height="10" fill="#D77BBA" />
<rect x="100" y="260" width="10" height="10" fill="#D77BBA" />
<rect x="110" y="260" width="10" height="10" fill="#D77BBA" />
<rect x="120" y="260" width="10" height="10" fill="#AF8F77" />
<rect x="130" y="260" width="10" height="10" fill="#AF8F77" />
<rect x="140" y="260" width="10" height="10" fill="#AF8F77" />
<rect x="150" y="260" width="10" height="10" fill="#AF8F77" />
<rect x="160" y="260" width="10" height="10" fill="#AF8F77" />
<rect x="170" y="260" width="10" height="10" fill="#AF8F77" />
<rect x="180" y="260" width="10" height="10" fill="#AF8F77" />
<rect x="190" y="260" width="10" height="10" fill="#D77BBA" />
<rect x="200" y="260" width="10" height="10" fill="#D77BBA" />
<rect x="210" y="260" width="10" height="10" fill="#D77BBA" />
<rect x="220" y="260" width="10" height="10" fill="#916E54" />
<rect x="230" y="260" width="10" height="10" fill="#826148" />
<rect x="240" y="260" width="10" height="10" fill="#000000" />
<rect x="250" y="260" width="10" height="10" fill="#000000" />
<rect x="70" y="270" width="10" height="10" fill="#826148" />
<rect x="80" y="270" width="10" height="10" fill="#826148" />
<rect x="90" y="270" width="10" height="10" fill="#916E54" />
<rect x="100" y="270" width="10" height="10" fill="#A07D64" />
<rect x="110" y="270" width="10" height="10" fill="#AF8F77" />
<rect x="120" y="270" width="10" height="10" fill="#AF8F77" />
<rect x="130" y="270" width="10" height="10" fill="#AF8F77" />
<rect x="140" y="270" width="10" height="10" fill="#AF8F77" />
<rect x="150" y="270" width="10" height="10" fill="#AF8F77" />
<rect x="160" y="270" width="10" height="10" fill="#AF8F77" />
<rect x="170" y="270" width="10" height="10" fill="#AF8F77" />
<rect x="180" y="270" width="10" height="10" fill="#AF8F77" />
<rect x="190" y="270" width="10" height="10" fill="#AF8F77" />
<rect x="200" y="270" width="10" height="10" fill="#A07D64" />
<rect x="210" y="270" width="10" height="10" fill="#916E54" />
<rect x="220" y="270" width="10" height="10" fill="#826148" />
<rect x="230" y="270" width="10" height="10" fill="#826148" />
<rect x="90" y="280" width="10" height="10" fill="#826148" />
<rect x="100" y="280" width="10" height="10" fill="#916E54" />
<rect x="110" y="280" width="10" height="10" fill="#A07D64" />
<rect x="120" y="280" width="10" height="10" fill="#AF8F77" />
<rect x="130" y="280" width="10" height="10" fill="#AF8F77" />
<rect x="140" y="280" width="10" height="10" fill="#AF8F77" />
<rect x="150" y="280" width="10" height="10" fill="#AF8F77" />
<rect x="160" y="280" width="10" height="10" fill="#AF8F77" />
<rect x="170" y="280" width="10" height="10" fill="#AF8F77" />
<rect x="180" y="280" width="10" height="10" fill="#AF8F77" />
<rect x="190" y="280" width="10" height="10" fill="#A07D64" />
<rect x="200" y="280" width="10" height="10" fill="#916E54" />
<rect x="210" y="280" width="10" height="10" fill="#826148" />
<rect x="100" y="290" width="10" height="10" fill="#916E54" />
<rect x="110" y="290" width="10" height="10" fill="#916E54" />
<rect x="120" y="290" width="10" height="10" fill="#916E54" />
<rect x="130" y="290" width="10" height="10" fill="#AF8F77" />
<rect x="140" y="290" width="10" height="10" fill="#AF8F77" />
<rect x="150" y="290" width="10" height="10" fill="#AF8F77" />
<rect x="160" y="290" width="10" height="10" fill="#AF8F77" />
<rect x="170" y="290" width="10" height="10" fill="#AF8F77" />
<rect x="180" y="290" width="10" height="10" fill="#916E54" />
<rect x="190" y="290" width="10" height="10" fill="#916E54" />
<rect x="200" y="290" width="10" height="10" fill="#916E54" />
<rect x="120" y="300" width="10" height="10" fill="#916E54" />
<rect x="130" y="300" width="10" height="10" fill="#916E54" />
<rect x="140" y="300" width="10" height="10" fill="#916E54" />
<rect x="150" y="300" width="10" height="10" fill="#A07D64" />
<rect x="160" y="300" width="10" height="10" fill="#916E54" />
<rect x="170" y="300" width="10" height="10" fill="#916E54" />
<rect x="180" y="300" width="10" height="10" fill="#916E54" />
</svg>