<?xml version="1.0" encoding="UTF-8" ?>
<svg version="1.1" width="320" height="320" xmlns="http://www.w3.org/2000/svg" shape-rendering="crispEdges">
<rect x="160" y="90" width="10" height="10" fill="#DB1300" />
<rect x="140" y="110" width="10" height="10" fill="#9E2E17" />
<rect x="150" y="110" width="10" height="10" fill="#DB1300" />
<rect x="160" y="110" width="10" height="10" fill="#DB1300" />
<rect x="170" y="110" width="10" height="10" fill="#9E2E17" />
<rect x="200" y="110" width="10" height="10" fill="#9E2E17" />
<rect x="100" y="120" width="10" height="10" fill="#DB1300" />
<rect x="120" y="120" width="10" height="10" fill="#DB1300" />
<rect x="130" y="120" width="10" height="10" fill="#F35400" />
<rect x="140" y="120" width="10" height="10" fill="#F37F00" />
<rect x="150" y="120" width="10" height="10" fill="#F37F00" />
<rect x="160" y="120" width="10" height="10" fill="#F37F00" />
<rect x="170" y="120" width="10" height="10" fill="#F35400" />
<rect x="180" y="120" width="10" height="10" fill="#F35400" />
<rect x="190" y="120" width="10" height="10" fill="#DB1300" />
<rect x="120" y="130" width="10" height="10" fill="#F35400" />
<rect x="130" y="130" width="10" height="10" fill="#F37F00" />
<rect x="140" y="130" width="10" height="10" fill="#F37F00" />
<rect x="150" y="130" width="10" height="10" fill="#FFA416" />
<rect x="160" y="130" width="10" height="10" fill="#FFA416" />
<rect x="170" y="130" width="10" height="10" fill="#F37F00" />
<rect x="180" y="130" width="10" height="10" fill="#F35400" />
<rect x="190" y="130" width="10" height="10" fill="#F35400" />
<rect x="110" y="140" width="10" height="10" fill="#9E2E17" />
<rect x="120" y="140" width="10" height="10" fill="#F35400" />
<rect x="130" y="140" width="10" height="10" fill="#F35400" />
<rect x="140" y="140" width="10" height="10" fill="#F37F00" />
<rect x="150" y="140" width="10" height="10" fill="#FFDE00" />
<rect x="160" y="140" width="10" height="10" fill="#FFB712" />
<rect x="170" y="140" width="10" height="10" fill="#F37F00" />
<rect x="180" y="140" width="10" height="10" fill="#F37F00" />
<rect x="190" y="140" width="10" height="10" fill="#F37F00" />
<rect x="200" y="140" width="10" height="10" fill="#9E2E17" />
<rect x="110" y="150" width="10" height="10" fill="#9E2E17" />
<rect x="120" y="150" width="10" height="10" fill="#F37F00" />
<rect x="130" y="150" width="10" height="10" fill="#F35400" />
<rect x="140" y="150" width="10" height="10" fill="#FFA416" />
<rect x="150" y="150" width="10" height="10" fill="#FFB712" />
<rect x="160" y="150" width="10" height="10" fill="#FFDE00" />
<rect x="170" y="150" width="10" height="10" fill="#FFA416" />
<rect x="180" y="150" width="10" height="10" fill="#F37F00" />
<rect x="190" y="150" width="10" height="10" fill="#F35400" />
<rect x="200" y="150" width="10" height="10" fill="#9E2E17" />
<rect x="110" y="160" width="10" height="10" fill="#9E2E17" />
<rect x="120" y="160" width="10" height="10" fill="#F37F00" />
<rect x="130" y="160" width="10" height="10" fill="#F37F00" />
<rect x="140" y="160" width="10" height="10" fill="#FFA416" />
<rect x="150" y="160" width="10" height="10" fill="#FFDE00" />
<rect x="160" y="160" width="10" height="10" fill="#FFDE00" />
<rect x="170" y="160" width="10" height="10" fill="#FFA416" />
<rect x="180" y="160" width="10" height="10" fill="#F37F00" />
<rect x="190" y="160" width="10" height="10" fill="#F35400" />
<rect x="200" y="160" width="10" height="10" fill="#9E2E17" />
<rect x="110" y="170" width="10" height="10" fill="#9E2E17" />
<rect x="120" y="170" width="10" height="10" fill="#F35400" />
<rect x="130" y="170" width="10" height="10" fill="#F37F00" />
<rect x="140" y="170" width="10" height="10" fill="#F37F00" />
<rect x="150" y="170" width="10" height="10" fill="#FFB712" />
<rect x="160" y="170" width="10" height="10" fill="#FFB712" />
<rect x="170" y="170" width="10" height="10" fill="#F37F00" />
<rect x="180" y="170" width="10" height="10" fill="#F37F00" />
<rect x="190" y="170" width="10" height="10" fill="#F37F00" />
<rect x="200" y="170" width="10" height="10" fill="#9E2E17" />
<rect x="110" y="180" width="10" height="10" fill="#DB1300" />
<rect x="120" y="180" width="10" height="10" fill="#DB1300" />
<rect x="130" y="180" width="10" height="10" fill="#F37F00" />
<rect x="140" y="180" width="10" height="10" fill="#F37F00" />
<rect x="150" y="180" width="10" height="10" fill="#FFA416" />
<rect x="160" y="180" width="10" height="10" fill="#FFA416" />
<rect x="170" y="180" width="10" height="10" fill="#F37F00" />
<rect x="180" y="180" width="10" height="10" fill="#F37F00" />
<rect x="190" y="180" width="10" height="10" fill="#F35400" />
<rect x="120" y="190" width="10" height="10" fill="#DB1300" />
<rect x="130" y="190" width="10" height="10" fill="#F35400" />
<rect x="140" y="190" width="10" height="10" fill="#F35400" />
<rect x="150" y="190" width="10" height="10" fill="#F37F00" />
<rect x="160" y="190" width="10" height="10" fill="#F37F00" />
<rect x="170" y="190" width="10" height="10" fill="#F37F00" />
<rect x="180" y="190" width="10" height="10" fill="#F35400" />
<rect x="190" y="190" width="10" height="10" fill="#DB1300" />
<rect x="140" y="200" width="10" height="10" fill="#9E2E17" />
<rect x="150" y="200" width="10" height="10" fill="#DB1300" />
<rect x="160" y="200" width="10" height="10" fill="#DB1300" />
<rect x="170" y="200" width="10" height="10" fill="#9E2E17" />
<rect x="200" y="200" width="10" height="10" fill="#DB1300" />
<rect x="120" y="210" width="10" height="10" fill="#9E2E17" />
</svg>