<?xml version="1.0" encoding="UTF-8" ?>
<svg version="1.1" width="320" height="320" xmlns="http://www.w3.org/2000/svg" shape-rendering="crispEdges">
<rect x="130" y="0" width="10" height="10" fill="#000000" />
<rect x="140" y="0" width="10" height="10" fill="#808080" />
<rect x="150" y="0" width="10" height="10" fill="#000000" />
<rect x="160" y="0" width="10" height="10" fill="#000000" />
<rect x="170" y="0" width="10" height="10" fill="#000000" />
<rect x="180" y="0" width="10" height="10" fill="#000000" />
<rect x="130" y="10" width="10" height="10" fill="#000000" />
<rect x="140" y="10" width="10" height="10" fill="#808080" />
<rect x="150" y="10" width="10" height="10" fill="#000000" />
<rect x="160" y="10" width="10" height="10" fill="#000000" />
<rect x="170" y="10" width="10" height="10" fill="#000000" />
<rect x="180" y="10" width="10" height="10" fill="#000000" />
<rect x="130" y="20" width="10" height="10" fill="#000000" />
<rect x="140" y="20" width="10" height="10" fill="#808080" />
<rect x="150" y="20" width="10" height="10" fill="#000000" />
<rect x="160" y="20" width="10" height="10" fill="#000000" />
<rect x="170" y="20" width="10" height="10" fill="#000000" />
<rect x="180" y="20" width="10" height="10" fill="#000000" />
<rect x="130" y="30" width="10" height="10" fill="#808080" />
<rect x="140" y="30" width="10" height="10" fill="#808080" />
<rect x="150" y="30" width="10" height="10" fill="#808080" />
<rect x="160" y="30" width="10" height="10" fill="#808080" />
<rect x="170" y="30" width="10" height="10" fill="#808080" />
<rect x="180" y="30" width="10" height="10" fill="#808080" />
<rect x="130" y="40" width="10" height="10" fill="#000000" />
<rect x="140" y="40" width="10" height="10" fill="#000000" />
<rect x="150" y="40" width="10" height="10" fill="#000000" />
<rect x="160" y="40" width="10" height="10" fill="#808080" />
<rect x="170" y="40" width="10" height="10" fill="#000000" />
<rect x="180" y="40" width="10" height="10" fill="#000000" />
<rect x="130" y="50" width="10" height="10" fill="#000000" />
<rect x="140" y="50" width="10" height="10" fill="#000000" />
<rect x="150" y="50" width="10" height="10" fill="#000000" />
<rect x="160" y="50" width="10" height="10" fill="#808080" />
<rect x="170" y="50" width="10" height="10" fill="#000000" />
<rect x="180" y="50" width="10" height="10" fill="#000000" />
<rect x="130" y="60" width="10" height="10" fill="#000000" />
<rect x="140" y="60" width="10" height="10" fill="#000000" />
<rect x="150" y="60" width="10" height="10" fill="#000000" />
<rect x="160" y="60" width="10" height="10" fill="#808080" />
<rect x="170" y="60" width="10" height="10" fill="#000000" />
<rect x="180" y="60" width="10" height="10" fill="#000000" />
<rect x="130" y="70" width="10" height="10" fill="#808080" />
<rect x="140" y="70" width="10" height="10" fill="#808080" />
<rect x="150" y="70" width="10" height="10" fill="#808080" />
<rect x="160" y="70" width="10" height="10" fill="#808080" />
<rect x="170" y="70" width="10" height="10" fill="#808080" />
<rect x="180" y="70" width="10" height="10" fill="#808080" />
<rect x="130" y="80" width="10" height="10" fill="#000000" />
<rect x="140" y="80" width="10" height="10" fill="#000000" />
<rect x="150" y="80" width="10" height="10" fill="#808080" />
<rect x="160" y="80" width="10" height="10" fill="#000000" />
<rect x="170" y="80" width="10" height="10" fill="#000000" />
<rect x="180" y="80" width="10" height="10" fill="#000000" />
<rect x="130" y="90" width="10" height="10" fill="#000000" />
<rect x="140" y="90" width="10" height="10" fill="#000000" />
<rect x="150" y="90" width="10" height="10" fill="#808080" />
<rect x="160" y="90" width="10" height="10" fill="#000000" />
<rect x="170" y="90" width="10" height="10" fill="#000000" />
<rect x="180" y="90" width="10" height="10" fill="#000000" />
<rect x="130" y="100" width="10" height="10" fill="#000000" />
<rect x="140" y="100" width="10" height="10" fill="#000000" />
<rect x="150" y="100" width="10" height="10" fill="#808080" />
<rect x="160" y="100" width="10" height="10" fill="#000000" />
<rect x="170" y="100" width="10" height="10" fill="#000000" />
<rect x="180" y="100" width="10" height="10" fill="#000000" />
<rect x="130" y="110" width="10" height="10" fill="#808080" />
<rect x="140" y="110" width="10" height="10" fill="#808080" />
<rect x="150" y="110" width="10" height="10" fill="#808080" />
<rect x="160" y="110" width="10" height="10" fill="#808080" />
<rect x="170" y="110" width="10" height="10" fill="#808080" />
<rect x="180" y="110" width="10" height="10" fill="#808080" />
<rect x="130" y="120" width="10" height="10" fill="#000000" />
<rect x="140" y="120" width="10" height="10" fill="#000000" />
<rect x="150" y="120" width="10" height="10" fill="#000000" />
<rect x="160" y="120" width="10" height="10" fill="#808080" />
<rect x="170" y="120" width="10" height="10" fill="#000000" />
<rect x="180" y="120" width="10" height="10" fill="#000000" />
<rect x="130" y="130" width="10" height="10" fill="#000000" />
<rect x="140" y="130" width="10" height="10" fill="#000000" />
<rect x="150" y="130" width="10" height="10" fill="#000000" />
<rect x="160" y="130" width="10" height="10" fill="#808080" />
<rect x="170" y="130" width="10" height="10" fill="#000000" />
<rect x="180" y="130" width="10" height="10" fill="#000000" />
<rect x="130" y="140" width="10" height="10" fill="#000000" />
<rect x="140" y="140" width="10" height="10" fill="#000000" />
<rect x="150" y="140" width="10" height="10" fill="#000000" />
<rect x="160" y="140" width="10" height="10" fill="#808080" />
<rect x="170" y="140" width="10" height="10" fill="#000000" />
<rect x="180" y="140" width="10" height="10" fill="#000000" />
<rect x="130" y="150" width="10" height="10" fill="#808080" />
<rect x="140" y="150" width="10" height="10" fill="#808080" />
<rect x="150" y="150" width="10" height="10" fill="#808080" />
<rect x="160" y="150" width="10" height="10" fill="#808080" />
<rect x="170" y="150" width="10" height="10" fill="#808080" />
<rect x="180" y="150" width="10" height="10" fill="#808080" />
<rect x="130" y="160" width="10" height="10" fill="#000000" />
<rect x="140" y="160" width="10" height="10" fill="#000000" />
<rect x="150" y="160" width="10" height="10" fill="#808080" />
<rect x="160" y="160" width="10" height="10" fill="#000000" />
<rect x="170" y="160" width="10" height="10" fill="#000000" />
<rect x="180" y="160" width="10" height="10" fill="#000000" />
<rect x="130" y="170" width="10" height="10" fill="#000000" />
<rect x="140" y="170" width="10" height="10" fill="#000000" />
<rect x="150" y="170" width="10" height="10" fill="#808080" />
<rect x="160" y="170" width="10" height="10" fill="#000000" />
<rect x="170" y="170" width="10" height="10" fill="#000000" />
<rect x="180" y="170" width="10" height="10" fill="#000000" />
<rect x="130" y="180" width="10" height="10" fill="#000000" />
<rect x="140" y="180" width="10" height="10" fill="#000000" />
<rect x="150" y="180" width="10" height="10" fill="#808080" />
<rect x="160" y="180" width="10" height="10" fill="#000000" />
<rect x="170" y="180" width="10" height="10" fill="#000000" />
<rect x="180" y="180" width="10" height="10" fill="#000000" />
<rect x="130" y="190" width="10" height="10" fill="#808080" />
<rect x="140" y="190" width="10" height="10" fill="#808080" />
<rect x="150" y="190" width="10" height="10" fill="#808080" />
<rect x="160" y="190" width="10" height="10" fill="#808080" />
<rect x="170" y="190" width="10" height="10" fill="#808080" />
<rect x="180" y="190" width="10" height="10" fill="#808080" />
<rect x="130" y="200" width="10" height="10" fill="#000000" />
<rect x="140" y="200" width="10" height="10" fill="#000000" />
<rect x="150" y="200" width="10" height="10" fill="#000000" />
<rect x="160" y="200" width="10" height="10" fill="#000000" />
<rect x="170" y="200" width="10" height="10" fill="#808080" />
<rect x="180" y="200" width="10" height="10" fill="#000000" />
<rect x="130" y="210" width="10" height="10" fill="#000000" />
<rect x="140" y="210" width="10" height="10" fill="#000000" />
<rect x="150" y="210" width="10" height="10" fill="#000000" />
<rect x="160" y="210" width="10" height="10" fill="#000000" />
<rect x="170" y="210" width="10" height="10" fill="#808080" />
<rect x="180" y="210" width="10" height="10" fill="#000000" />
<rect x="130" y="220" width="10" height="10" fill="#000000" />
<rect x="140" y="220" width="10" height="10" fill="#000000" />
<rect x="150" y="220" width="10" height="10" fill="#000000" />
<rect x="160" y="220" width="10" height="10" fill="#000000" />
<rect x="170" y="220" width="10" height="10" fill="#808080" />
<rect x="180" y="220" width="10" height="10" fill="#000000" />
<rect x="130" y="230" width="10" height="10" fill="#808080" />
<rect x="140" y="230" width="10" height="10" fill="#808080" />
<rect x="150" y="230" width="10" height="10" fill="#808080" />
<rect x="160" y="230" width="10" height="10" fill="#808080" />
<rect x="170" y="230" width="10" height="10" fill="#808080" />
<rect x="180" y="230" width="10" height="10" fill="#808080" />
<rect x="130" y="240" width="10" height="10" fill="#000000" />
<rect x="140" y="240" width="10" height="10" fill="#808080" />
<rect x="150" y="240" width="10" height="10" fill="#000000" />
<rect x="160" y="240" width="10" height="10" fill="#000000" />
<rect x="170" y="240" width="10" height="10" fill="#000000" />
<rect x="180" y="240" width="10" height="10" fill="#000000" />
<rect x="130" y="250" width="10" height="10" fill="#000000" />
<rect x="140" y="250" width="10" height="10" fill="#808080" />
<rect x="150" y="250" width="10" height="10" fill="#000000" />
<rect x="160" y="250" width="10" height="10" fill="#000000" />
<rect x="170" y="250" width="10" height="10" fill="#000000" />
<rect x="180" y="250" width="10" height="10" fill="#000000" />
<rect x="130" y="260" width="10" height="10" fill="#000000" />
<rect x="140" y="260" width="10" height="10" fill="#808080" />
<rect x="150" y="260" width="10" height="10" fill="#000000" />
<rect x="160" y="260" width="10" height="10" fill="#000000" />
<rect x="170" y="260" width="10" height="10" fill="#000000" />
<rect x="180" y="260" width="10" height="10" fill="#000000" />
<rect x="130" y="270" width="10" height="10" fill="#808080" />
<rect x="140" y="270" width="10" height="10" fill="#808080" />
<rect x="150" y="270" width="10" height="10" fill="#808080" />
<rect x="160" y="270" width="10" height="10" fill="#808080" />
<rect x="170" y="270" width="10" height="10" fill="#808080" />
<rect x="180" y="270" width="10" height="10" fill="#808080" />
<rect x="130" y="280" width="10" height="10" fill="#000000" />
<rect x="140" y="280" width="10" height="10" fill="#000000" />
<rect x="150" y="280" width="10" height="10" fill="#000000" />
<rect x="160" y="280" width="10" height="10" fill="#808080" />
<rect x="170" y="280" width="10" height="10" fill="#000000" />
<rect x="180" y="280" width="10" height="10" fill="#000000" />
<rect x="130" y="290" width="10" height="10" fill="#000000" />
<rect x="140" y="290" width="10" height="10" fill="#000000" />
<rect x="150" y="290" width="10" height="10" fill="#000000" />
<rect x="160" y="290" width="10" height="10" fill="#808080" />
<rect x="170" y="290" width="10" height="10" fill="#000000" />
<rect x="180" y="290" width="10" height="10" fill="#000000" />
<rect x="130" y="300" width="10" height="10" fill="#000000" />
<rect x="140" y="300" width="10" height="10" fill="#000000" />
<rect x="150" y="300" width="10" height="10" fill="#000000" />
<rect x="160" y="300" width="10" height="10" fill="#808080" />
<rect x="170" y="300" width="10" height="10" fill="#000000" />
<rect x="180" y="300" width="10" height="10" fill="#000000" />
<rect x="130" y="310" width="10" height="10" fill="#808080" />
<rect x="140" y="310" width="10" height="10" fill="#808080" />
<rect x="150" y="310" width="10" height="10" fill="#808080" />
<rect x="160" y="310" width="10" height="10" fill="#808080" />
<rect x="170" y="310" width="10" height="10" fill="#808080" />
<rect x="180" y="310" width="10" height="10" fill="#808080" />
</svg>